<?xml version="1.0" encoding="UTF-8" standalone="no"?>
<!DOCTYPE svg PUBLIC "-//W3C//DTD SVG 1.1//EN" "http://www.w3.org/Graphics/SVG/1.1/DTD/svg11.dtd">
<svg xmlns="http://www.w3.org/2000/svg" version="1.1" viewBox="0.00 0.00 1024.00 1024.00">
<g stroke-width="2.00" fill="none" stroke-linecap="butt">
<path stroke="#8f8d8c" vector-effect="non-scaling-stroke" d="
  M 512.53 639.21
  C 516.92 683.53 520.85 729.09 525.73 787.53
  Q 526.57 797.67 526.57 807.47
  Q 526.51 887.29 526.55 963.88
  Q 526.55 969.99 532.96 969.87
  Q 534.05 969.85 533.38 970.71
  Q 527.93 977.62 528.02 987.22
  Q 528.12 997.33 528.13 1007.21
  C 528.14 1011.41 531.37 1014.32 535.42 1014.35
  Q 599.77 1014.75 664.01 1016.94
  C 667.40 1017.06 669.44 1015.01 669.36 1011.77
  Q 669.20 1005.55 669.33 999.34
  C 669.47 992.18 656.28 987.36 650.80 985.57
  Q 631.03 979.13 611.26 974.37
  A 0.86 0.86 0.0 0 1 610.62 973.34
  Q 611.33 970.19 608.64 969.28
  Q 608.03 969.07 608.27 968.47
  C 608.63 967.59 608.80 966.68 608.80 965.74
  Q 608.58 887.62 608.72 809.04
  Q 608.74 800.04 609.15 789.31
  Q 612.76 696.03 616.94 604.39
  C 617.88 583.78 617.46 562.96 617.42 542.38
  A 0.88 0.87 -2.9 0 1 618.21 541.51
  C 623.50 540.97 630.41 541.07 635.08 538.82
  C 639.65 536.61 641.80 532.14 641.44 527.20
  Q 637.63 474.71 634.63 427.78
  Q 634.16 420.40 627.93 416.75
  C 624.85 414.95 621.04 414.95 617.53 415.06
  A 0.31 0.31 0.0 0 1 617.21 414.78
  Q 611.25 356.85 615.69 297.59
  A 1.33 1.33 0.0 0 1 616.72 296.39
  Q 620.95 295.42 624.64 293.17
  Q 634.65 287.06 644.07 277.06
  C 663.64 256.30 683.59 233.97 701.59 210.24
  Q 730.11 172.63 752.77 133.76
  C 758.61 123.74 762.67 114.32 757.44 102.85
  Q 751.55 89.94 735.30 87.44
  Q 693.65 81.03 650.76 78.52
  Q 617.77 76.59 588.97 75.40
  A 0.45 0.44 88.5 0 1 588.54 74.98
  C 586.72 47.83 572.56 22.85 546.25 13.25
  C 531.11 7.72 507.00 5.49 497.55 21.17
  Q 497.13 21.87 496.32 21.78
  C 484.24 20.35 471.26 21.00 460.49 25.91
  C 442.60 34.08 437.33 56.03 435.28 74.12
  Q 435.19 74.90 434.45 74.64
  C 433.71 74.39 433.03 74.56 432.35 74.87
  Q 430.43 75.74 428.47 75.82
  C 382.77 77.52 336.12 80.65 290.42 87.39
  Q 284.49 88.26 280.38 89.84
  C 268.99 94.24 262.76 108.22 265.87 119.78
  C 267.25 124.91 270.32 130.20 273.07 134.85
  Q 293.42 169.25 320.23 205.73
  C 337.07 228.63 357.00 249.06 376.04 270.17
  Q 385.65 280.81 398.62 291.49
  Q 399.33 292.07 399.64 293.05
  Q 408.07 318.95 408.76 346.02
  C 409.39 370.50 407.91 395.26 406.66 419.25
  Q 406.49 422.55 406.11 424.31
  Q 403.81 434.96 401.86 445.56
  Q 400.81 451.25 403.56 454.73
  C 404.59 456.03 406.71 456.68 406.72 458.57
  Q 406.99 522.16 406.87 585.22
  Q 406.85 595.21 407.30 605.25
  Q 411.46 697.02 415.20 789.56
  Q 415.62 799.92 415.63 809.46
  Q 415.72 889.95 415.65 966.20
  C 415.65 966.93 415.86 967.67 416.11 968.35
  A 0.69 0.68 65.5 0 1 415.81 969.17
  Q 413.69 970.38 413.97 973.10
  A 1.34 1.33 -10.0 0 1 412.96 974.53
  Q 391.59 979.68 371.75 986.20
  C 367.06 987.74 354.64 992.46 354.88 998.73
  Q 355.11 1004.83 354.88 1011.74
  C 354.78 1014.79 357.13 1017.10 360.16 1017.00
  Q 420.97 1014.94 489.76 1014.29
  C 493.24 1014.25 496.38 1011.25 496.39 1007.74
  Q 496.42 997.61 496.41 987.31
  Q 496.41 977.30 490.69 970.74
  Q 489.94 969.89 491.07 969.97
  C 494.43 970.22 497.55 968.38 497.53 964.84
  Q 497.19 876.33 497.42 800.74
  Q 497.43 797.71 497.69 794.75
  Q 504.35 720.06 511.99 639.21
  Q 512.25 636.38 512.53 639.21"
/>
<path stroke="#8f8d8c" vector-effect="non-scaling-stroke" d="
  M 529.36 80.06
  Q 517.53 75.43 507.22 67.55
  Q 506.40 66.91 506.57 67.94
  Q 507.68 74.68 509.83 81.93
  Q 510.16 83.01 510.08 84.23
  A 0.60 0.60 0.0 0 1 509.41 84.79
  Q 505.71 84.38 502.91 82.54
  Q 491.68 75.17 484.14 64.42
  A 0.54 0.54 0.0 0 0 483.22 64.48
  Q 475.07 79.46 460.56 86.63
  A 0.82 0.82 0.0 0 0 460.11 87.31
  L 458.31 121.01
  A 2.59 2.58 77.2 0 1 456.98 123.13
  L 455.41 124.00
  Q 454.94 124.25 454.94 124.78
  C 454.70 153.66 474.28 180.98 503.77 185.59
  C 522.40 188.50 540.99 181.79 553.60 167.69
  Q 569.24 150.20 569.70 125.03
  Q 569.72 124.07 568.80 123.77
  C 567.42 123.33 566.13 122.27 566.05 120.73
  Q 565.02 102.18 563.98 86.60
  A 0.81 0.80 8.1 0 0 563.46 85.91
  C 550.97 81.31 537.36 75.70 525.82 68.44
  Q 524.26 67.46 524.91 69.18
  Q 526.86 74.36 530.02 79.24
  Q 530.97 80.69 529.36 80.06"
/>
<path stroke="#8f8d8c" vector-effect="non-scaling-stroke" d="
  M 425.52 121.64
  A 0.64 0.64 0.0 0 0 426.09 121.08
  C 426.91 114.17 429.54 108.49 433.71 103.16
  Q 434.15 102.59 433.98 101.89
  Q 431.98 93.49 432.28 83.47
  Q 432.30 82.92 431.75 82.94
  L 411.70 83.69
  Q 411.12 83.72 411.12 84.30
  L 411.20 122.80
  A 0.32 0.31 86.8 0 0 411.55 123.12
  L 425.52 121.64"
/>
<path stroke="#8f8d8c" vector-effect="non-scaling-stroke" d="
  M 590.04 102.61
  C 594.84 107.64 597.67 113.49 598.27 120.71
  A 0.71 0.70 1.1 0 0 598.89 121.34
  L 613.06 123.11
  A 0.54 0.54 0.0 0 0 613.66 122.57
  L 613.66 84.19
  A 0.61 0.60 1.0 0 0 613.07 83.59
  L 592.03 82.93
  A 0.41 0.40 1.4 0 0 591.61 83.32
  Q 591.41 90.05 590.87 96.49
  Q 590.66 99.03 589.80 101.52
  Q 589.58 102.14 590.04 102.61"
/>
<path stroke="#576e17" vector-effect="non-scaling-stroke" d="
  M 673.98 130.61
  A 2.62 2.62 0.0 0 1 674.60 134.08
  Q 672.99 136.62 671.06 138.91
  Q 659.46 152.74 644.95 166.47
  A 1.41 1.40 43.7 0 0 645.00 168.56
  L 692.25 209.26
  A 0.72 0.72 0.0 0 0 693.23 209.22
  Q 694.90 207.52 696.32 205.57
  Q 709.92 186.91 724.33 165.85
  Q 739.15 144.19 750.17 123.36
  Q 752.29 119.36 752.54 116.66
  Q 753.79 103.36 742.63 96.87
  Q 739.93 95.31 736.81 94.82
  Q 708.75 90.42 680.69 87.97
  Q 650.95 85.38 621.34 84.11
  Q 620.72 84.08 620.72 84.70
  L 620.83 122.76
  A 1.22 1.22 0.0 0 0 621.92 123.97
  Q 648.15 126.94 670.75 129.35
  Q 672.58 129.54 673.98 130.61"
/>
<path stroke="#576e17" vector-effect="non-scaling-stroke" d="
  M 350.76 135.02
  C 348.78 132.61 350.30 129.92 353.24 129.62
  Q 377.40 127.11 402.94 124.18
  A 1.18 1.17 86.7 0 0 403.98 123.01
  L 403.92 84.87
  A 0.53 0.52 88.5 0 0 403.37 84.34
  Q 347.50 86.95 292.40 94.12
  Q 287.36 94.78 284.39 95.93
  C 276.56 98.97 271.93 106.43 272.26 114.78
  Q 272.42 118.88 275.02 123.86
  Q 278.06 129.69 281.23 134.96
  Q 303.45 171.83 330.12 207.08
  Q 330.89 208.09 331.93 208.86
  Q 332.32 209.15 332.68 208.83
  Q 353.14 190.74 369.93 176.79
  Q 375.27 172.35 380.33 167.73
  A 1.16 1.15 44.8 0 0 380.32 166.01
  Q 364.37 151.61 350.76 135.02"
/>
<path stroke="#8f8d8c" vector-effect="non-scaling-stroke" d="
  M 448.00 121.89
  C 448.09 120.63 448.64 119.72 448.87 118.53
  Q 448.99 117.95 448.72 117.41
  L 442.84 105.58
  A 0.61 0.61 0.0 0 0 441.95 105.35
  C 440.09 106.62 438.19 108.49 437.05 110.45
  Q 429.17 123.94 437.84 137.21
  Q 442.24 143.94 449.84 146.31
  A 0.58 0.58 0.0 0 0 450.57 145.59
  Q 447.17 133.76 448.00 121.89"
/>
<path stroke="#8f8d8c" vector-effect="non-scaling-stroke" d="
  M 582.75 105.54
  A 0.54 0.53 29.1 0 0 582.00 105.75
  L 576.12 117.11
  Q 575.86 117.61 575.92 118.17
  C 576.10 119.78 576.67 121.27 576.72 122.93
  Q 577.06 135.00 573.82 145.66
  A 0.44 0.43 2.3 0 0 574.33 146.21
  C 580.55 144.91 586.00 139.50 588.66 133.98
  Q 595.53 119.74 585.55 107.90
  Q 584.37 106.49 582.75 105.54"
/>
<path stroke="#8f8d8c" vector-effect="non-scaling-stroke" d="
  M 598.51 128.45
  A 0.62 0.59 8.2 0 0 597.84 128.93
  C 595.42 142.02 585.23 152.79 571.63 154.13
  A 1.00 1.00 0.0 0 0 570.84 154.69
  Q 560.52 176.56 539.13 187.99
  Q 538.46 188.34 538.42 189.10
  Q 538.27 192.02 539.39 194.50
  C 541.53 199.23 546.29 195.17 549.52 194.82
  Q 555.75 194.16 559.17 198.98
  A 0.71 0.71 0.0 0 0 559.90 199.26
  Q 575.15 195.81 589.35 191.58
  C 619.74 182.52 643.12 159.99 663.88 136.19
  A 0.28 0.27 -65.8 0 0 663.71 135.73
  L 598.51 128.45"
/>
<path stroke="#8f8d8c" vector-effect="non-scaling-stroke" d="
  M 471.14 194.89
  C 474.22 194.13 476.81 195.43 479.51 196.66
  C 481.49 197.57 487.84 198.83 488.61 195.47
  Q 489.15 193.07 489.10 190.36
  A 2.05 2.04 -79.0 0 0 487.87 188.53
  C 473.27 182.23 460.88 169.72 453.90 155.00
  A 1.68 1.68 0.0 0 0 452.55 154.06
  C 439.53 152.89 429.83 142.12 426.74 129.58
  A 1.15 1.15 0.0 0 0 425.50 128.71
  L 361.76 135.90
  Q 361.24 135.96 361.58 136.36
  Q 379.75 157.98 401.57 174.03
  Q 414.54 183.57 427.62 188.70
  C 439.36 193.31 451.66 196.08 464.02 199.35
  Q 464.80 199.55 465.29 198.91
  Q 467.75 195.73 471.14 194.89"
/>
<path stroke="#8f8d8c" vector-effect="non-scaling-stroke" d="
  M 489.44 248.47
  C 487.69 250.54 485.06 250.21 483.71 247.95
  Q 482.50 245.92 481.62 243.88
  Q 474.30 226.99 465.77 208.01
  A 2.71 2.71 0.0 0 0 463.87 206.47
  Q 449.79 203.39 435.33 199.05
  Q 414.80 192.90 397.46 179.93
  Q 392.49 176.21 387.63 172.33
  Q 386.86 171.73 386.12 172.36
  L 336.80 214.61
  A 0.56 0.55 -41.0 0 0 336.74 215.40
  Q 359.56 242.02 383.11 266.96
  C 389.20 273.42 395.76 279.56 402.48 285.38
  Q 405.34 287.87 406.44 290.96
  Q 412.49 307.97 414.52 327.12
  Q 417.09 351.49 415.60 381.02
  Q 414.73 398.37 414.11 416.05
  C 413.71 427.26 410.30 437.41 408.72 448.50
  A 1.84 1.83 -74.5 0 0 409.82 450.45
  Q 412.81 451.74 415.89 451.38
  Q 435.17 449.15 453.17 451.16
  Q 465.70 452.56 477.43 454.37
  Q 479.94 454.76 482.77 454.91
  Q 483.70 454.96 483.70 454.03
  Q 483.65 437.58 483.23 420.81
  Q 483.07 414.24 484.08 406.57
  Q 485.43 396.29 486.51 386.07
  Q 486.57 385.50 486.09 385.17
  Q 454.43 363.45 424.81 337.39
  Q 422.76 335.59 424.00 333.16
  Q 424.21 332.73 424.55 332.41
  Q 427.10 329.99 429.77 332.28
  Q 458.33 356.87 486.80 377.07
  A 0.50 0.50 0.0 0 0 487.59 376.72
  Q 495.04 315.21 502.25 256.28
  C 502.51 254.17 503.18 252.10 503.51 250.00
  A 1.51 1.48 -66.2 0 0 503.00 248.64
  C 500.53 246.55 500.73 242.01 500.28 238.97
  A 0.52 0.52 0.0 0 0 499.43 238.64
  Q 493.98 243.08 489.44 248.47"
/>
<path stroke="#8f8d8c" vector-effect="non-scaling-stroke" d="
  M 637.02 173.13
  C 633.36 176.48 629.44 179.48 625.19 181.90
  Q 624.55 182.26 624.60 182.99
  Q 625.26 194.41 624.69 208.18
  Q 623.00 249.21 616.43 288.34
  A 0.37 0.37 0.0 0 0 616.89 288.76
  Q 619.69 287.96 622.07 286.38
  Q 630.19 280.99 637.51 273.31
  Q 663.67 245.87 688.10 216.01
  A 0.85 0.85 0.0 0 0 687.99 214.83
  L 639.32 173.09
  A 1.74 1.73 43.9 0 0 637.02 173.13"
/>
<path stroke="#8f8d8c" vector-effect="non-scaling-stroke" d="
  M 521.07 248.31
  Q 520.71 248.49 520.42 248.77
  Q 520.02 249.16 520.16 249.70
  Q 521.08 253.21 521.46 256.01
  Q 528.71 309.26 536.90 373.67
  Q 539.34 392.83 541.00 409.86
  Q 541.05 410.31 541.46 410.52
  L 561.77 420.68
  A 2.94 2.92 52.4 0 0 563.63 420.93
  C 568.65 419.92 576.53 418.90 581.05 422.02
  Q 581.52 422.34 581.92 421.94
  Q 585.42 418.52 590.53 417.53
  Q 600.35 415.62 609.72 415.42
  A 0.34 0.34 0.0 0 0 610.06 415.04
  Q 604.24 357.62 608.21 300.24
  Q 608.87 290.71 610.48 280.27
  Q 614.94 251.39 617.05 218.31
  Q 618.10 201.88 617.67 187.96
  A 0.52 0.51 -15.5 0 0 616.90 187.53
  C 599.24 197.53 580.18 202.18 560.59 206.47
  A 1.85 1.85 0.0 0 0 559.30 207.52
  L 541.57 247.00
  Q 539.21 252.24 535.10 248.22
  L 524.59 237.91
  A 0.46 0.46 0.0 0 0 523.81 238.15
  Q 523.04 241.91 522.79 245.68
  A 3.20 3.00 80.0 0 1 521.07 248.31"
/>
<path stroke="#8f8d8c" vector-effect="non-scaling-stroke" d="
  M 531.76 197.85
  L 531.53 191.41
  A 0.76 0.75 80.5 0 0 530.56 190.71
  Q 513.68 195.75 496.37 191.35
  A 0.38 0.38 0.0 0 0 495.89 191.73
  Q 496.00 195.49 495.66 199.41
  C 495.45 201.78 492.71 202.55 490.79 203.08
  A 0.39 0.39 0.0 0 0 490.70 203.79
  Q 500.64 209.55 511.56 214.53
  Q 512.07 214.76 512.57 214.52
  Q 524.90 208.69 536.78 201.94
  A 0.41 0.41 0.0 0 0 536.72 201.20
  L 533.36 200.02
  A 2.39 2.39 0.0 0 1 531.76 197.85"
/>
<path stroke="#8f8d8c" vector-effect="non-scaling-stroke" d="
  M 488.05 238.99
  C 494.14 233.26 500.64 227.20 506.19 220.79
  A 0.85 0.85 0.0 0 0 505.93 219.47
  Q 490.87 211.90 476.20 203.09
  Q 474.14 201.86 471.78 202.01
  A 0.64 0.63 -13.4 0 0 471.23 202.90
  L 487.22 238.83
  A 0.52 0.52 0.0 0 0 488.05 238.99"
/>
<path stroke="#8f8d8c" vector-effect="non-scaling-stroke" d="
  M 517.54 219.79
  A 0.20 0.19 -30.0 0 0 517.46 220.07
  Q 518.02 220.98 518.76 221.74
  Q 527.35 230.62 536.48 239.07
  A 0.50 0.50 0.0 0 0 537.28 238.91
  Q 545.20 221.77 552.93 204.43
  Q 553.48 203.19 552.73 202.50
  A 2.29 2.29 0.0 0 0 550.03 202.23
  Q 534.62 211.47 517.54 219.79"
/>
<path stroke="#576e17" vector-effect="non-scaling-stroke" d="
  M 506.71 231.82
  A 2.24 2.22 59.7 0 0 506.20 233.79
  Q 507.02 237.54 507.93 241.87
  Q 508.31 243.68 510.01 244.23
  Q 514.89 245.78 515.78 241.31
  Q 516.53 237.54 517.39 233.57
  C 517.73 231.97 517.59 230.79 516.26 229.72
  Q 514.12 228.02 512.16 226.64
  Q 511.61 226.25 511.16 226.76
  L 506.71 231.82"
/>
<path stroke="#576e17" vector-effect="non-scaling-stroke" d="
  M 515.34 273.00
  A 0.91 0.91 0.0 0 0 516.25 271.99
  L 515.60 265.82
  A 0.91 0.91 0.0 0 0 514.74 265.00
  L 509.11 264.73
  A 0.91 0.91 0.0 0 0 508.16 265.57
  L 507.65 271.95
  A 0.91 0.91 0.0 0 0 508.55 272.93
  L 515.34 273.00"
/>
<path stroke="#576e17" vector-effect="non-scaling-stroke" d="
  M 506.37 286.59
  A 0.82 0.82 0.0 0 0 505.56 287.30
  L 504.67 294.30
  A 0.82 0.82 0.0 0 0 505.48 295.23
  L 518.73 295.18
  A 0.82 0.82 0.0 0 0 519.54 294.25
  L 518.60 287.25
  A 0.82 0.82 0.0 0 0 517.78 286.54
  L 506.37 286.59"
/>
<path stroke="#576e17" vector-effect="non-scaling-stroke" d="
  M 503.37 309.07
  A 0.65 0.65 0.0 0 0 502.72 309.66
  L 501.97 317.69
  A 0.65 0.65 0.0 0 0 502.61 318.40
  L 521.59 318.39
  A 0.65 0.65 0.0 0 0 522.24 317.68
  L 521.47 309.65
  A 0.65 0.65 0.0 0 0 520.82 309.06
  L 503.37 309.07"
/>
<path stroke="#576e17" vector-effect="non-scaling-stroke" d="
  M 524.44 341.97
  A 0.95 0.95 0.0 0 0 525.38 340.91
  L 524.45 333.31
  A 0.95 0.95 0.0 0 0 523.51 332.47
  L 500.99 332.52
  A 0.95 0.95 0.0 0 0 500.05 333.36
  L 499.16 340.96
  A 0.95 0.95 0.0 0 0 500.11 342.02
  L 524.44 341.97"
/>
<path stroke="#576e17" vector-effect="non-scaling-stroke" d="
  M 498.05 355.63
  A 0.88 0.88 0.0 0 0 497.18 356.41
  L 496.29 364.74
  A 0.88 0.88 0.0 0 0 497.17 365.72
  L 527.53 365.62
  A 0.88 0.88 0.0 0 0 528.40 364.64
  L 527.46 356.30
  A 0.88 0.88 0.0 0 0 526.58 355.52
  L 498.05 355.63"
/>
<path stroke="#576e17" vector-effect="non-scaling-stroke" d="
  M 531.27 388.73
  L 530.56 380.55
  A 0.88 0.87 -2.2 0 0 529.70 379.76
  Q 507.69 379.51 495.56 379.86
  Q 494.08 379.90 494.13 381.39
  A 1.40 1.40 0.0 0 0 494.77 382.53
  L 504.07 388.64
  A 3.47 3.43 61.3 0 0 505.95 389.20
  L 530.71 389.33
  Q 531.32 389.33 531.27 388.73"
/>
<path stroke="#576e17" vector-effect="non-scaling-stroke" d="
  M 531.46 413.23
  C 526.09 410.61 520.74 407.09 515.50 403.72
  C 514.14 402.85 512.34 402.39 510.72 402.37
  Q 501.34 402.26 492.55 402.54
  A 0.88 0.88 0.0 0 0 491.71 403.30
  L 490.52 412.53
  A 0.85 0.85 0.0 0 0 491.38 413.49
  Q 511.24 413.15 531.36 413.65
  Q 532.37 413.67 531.46 413.23"
/>
<path stroke="#8f8d8c" vector-effect="non-scaling-stroke" d="
  M 529.71 402.70
  Q 528.60 402.62 529.54 403.21
  Q 530.78 403.98 532.18 404.65
  Q 532.60 404.85 532.74 404.40
  Q 532.78 404.26 532.77 404.11
  Q 532.74 403.72 532.40 403.53
  Q 531.09 402.79 529.71 402.70"
/>
<path stroke="#8f8d8c" vector-effect="non-scaling-stroke" d="
  M 541.77 418.66
  A 0.43 0.43 0.0 0 0 541.14 419.04
  L 541.21 424.80
  A 0.43 0.43 0.0 0 0 541.73 425.22
  L 549.63 423.66
  A 0.43 0.43 0.0 0 0 549.74 422.86
  L 541.77 418.66"
/>
<path stroke="#576e17" vector-effect="non-scaling-stroke" d="
  M 633.77 518.24
  Q 630.65 476.33 627.42 430.00
  C 627.09 425.27 626.12 422.03 620.87 421.89
  Q 609.70 421.57 596.83 423.28
  C 593.32 423.75 586.83 424.77 586.81 429.30
  Q 586.79 431.31 587.04 433.38
  Q 592.93 483.98 598.93 532.31
  C 599.47 536.63 602.75 536.52 606.10 536.07
  Q 617.12 534.57 628.71 533.66
  Q 634.53 533.21 634.32 527.79
  Q 634.14 523.25 633.77 518.24"
/>
<path stroke="#576e17" vector-effect="non-scaling-stroke" d="
  M 528.44 437.32
  A 1.51 1.51 0.0 0 0 529.73 436.61
  L 534.21 429.45
  A 1.51 1.51 0.0 0 0 532.94 427.14
  L 491.64 427.01
  A 1.51 1.51 0.0 0 0 490.12 428.54
  L 490.23 435.73
  A 1.51 1.51 0.0 0 0 491.73 437.21
  L 528.44 437.32"
/>
<path stroke="#576e17" vector-effect="non-scaling-stroke" d="
  M 573.96 427.12
  C 566.10 426.97 557.10 429.10 548.96 430.55
  Q 537.20 432.64 534.67 444.28
  Q 534.46 445.23 534.70 446.54
  Q 542.94 492.79 551.23 538.72
  Q 552.12 543.63 556.99 542.88
  Q 571.23 540.70 585.74 538.58
  Q 592.25 537.63 591.52 531.57
  Q 585.42 480.89 579.53 432.27
  Q 578.92 427.21 573.96 427.12"
/>
<path stroke="#576e17" vector-effect="non-scaling-stroke" d="
  M 513.45 462.39
  C 517.05 457.72 520.96 454.46 526.60 452.67
  Q 529.01 451.90 526.57 451.23
  Q 525.75 451.00 524.38 451.00
  Q 507.09 451.00 492.06 451.07
  Q 491.44 451.07 491.06 451.57
  Q 490.59 452.19 490.90 452.98
  Q 491.20 453.73 491.89 454.10
  Q 501.48 459.18 511.75 462.88
  A 1.51 1.50 28.8 0 0 513.45 462.39"
/>
<path stroke="#576e17" vector-effect="non-scaling-stroke" d="
  M 450.21 469.80
  L 450.25 458.99
  A 0.99 0.98 2.2 0 0 449.34 458.01
  C 437.16 457.05 426.15 457.90 414.32 458.49
  A 0.49 0.49 0.0 0 0 413.86 458.98
  L 413.81 469.49
  Q 413.81 470.16 414.49 470.16
  L 449.70 470.30
  A 0.51 0.50 -0.0 0 0 450.21 469.80"
/>
<path stroke="#576e17" vector-effect="non-scaling-stroke" d="
  M 502.98 469.67
  A 0.24 0.24 0.0 0 0 503.16 469.38
  Q 503.02 468.81 502.51 468.53
  Q 497.64 465.87 492.64 463.39
  C 488.81 461.49 484.85 462.33 480.97 461.91
  Q 470.18 460.74 458.37 458.98
  A 0.60 0.59 -85.8 0 0 457.69 459.57
  L 457.72 469.69
  A 0.47 0.47 0.0 0 0 458.19 470.16
  Q 478.39 470.14 498.75 470.09
  Q 500.76 470.09 502.98 469.67"
/>
<path stroke="#576e17" vector-effect="non-scaling-stroke" d="
  M 532.03 476.06
  A 0.97 0.97 0.0 0 0 532.61 474.98
  L 529.67 460.03
  Q 529.49 459.11 528.59 459.38
  Q 525.01 460.45 522.86 463.19
  C 519.22 467.84 513.80 471.70 508.56 474.53
  Q 488.73 485.23 468.02 496.22
  Q 467.34 496.58 467.68 497.27
  L 471.85 505.61
  Q 472.15 506.21 472.74 505.90
  Q 494.87 494.35 518.91 482.13
  Q 525.42 478.81 532.03 476.06"
/>
<path stroke="#576e17" vector-effect="non-scaling-stroke" d="
  M 513.80 596.60
  C 515.88 596.90 516.10 598.31 516.29 600.00
  Q 517.41 610.26 518.38 621.09
  Q 525.73 703.40 532.71 786.13
  Q 533.55 796.00 533.52 805.66
  Q 533.32 883.49 533.72 962.23
  A 0.85 0.85 0.0 0 0 534.56 963.08
  L 600.54 963.23
  Q 601.61 963.23 601.62 962.16
  Q 602.01 887.23 601.65 811.23
  Q 601.60 802.04 601.90 793.71
  Q 605.27 699.41 609.71 606.28
  C 610.70 585.60 610.26 565.34 610.11 543.72
  Q 610.10 542.84 609.23 542.93
  C 604.69 543.41 600.32 543.71 596.32 541.13
  A 0.77 0.77 0.0 0 0 595.39 541.20
  Q 591.24 544.96 584.09 545.88
  Q 573.39 547.24 563.27 549.04
  C 553.85 550.72 546.05 549.94 544.05 539.01
  Q 541.00 522.37 538.07 506.44
  Q 537.63 504.02 536.94 501.54
  A 0.37 0.37 0.0 0 0 536.31 501.39
  C 532.08 505.93 529.46 508.31 522.75 507.04
  Q 522.02 506.90 522.04 507.64
  Q 522.50 524.78 522.11 546.09
  Q 521.99 552.94 516.73 556.85
  Q 511.54 560.70 506.41 558.36
  Q 498.29 554.66 498.47 544.87
  Q 498.67 533.51 498.71 522.33
  Q 498.71 520.91 498.06 519.66
  C 496.79 517.21 495.91 515.34 496.21 512.39
  Q 496.73 507.24 497.42 502.16
  A 0.31 0.31 0.0 0 0 496.98 501.84
  Q 485.62 507.18 474.17 513.18
  Q 469.37 515.69 466.94 511.25
  Q 463.71 505.33 460.30 498.11
  Q 459.46 496.34 459.49 494.47
  Q 459.50 493.97 459.82 493.59
  Q 461.53 491.54 463.70 490.41
  Q 474.36 484.82 484.43 478.76
  Q 485.66 478.02 484.23 478.01
  L 458.74 477.87
  A 0.85 0.85 0.0 0 0 457.88 478.73
  Q 457.91 480.78 457.06 482.40
  Q 456.75 482.99 456.09 483.10
  C 453.36 483.56 449.69 483.43 449.99 479.67
  Q 450.14 477.80 448.27 477.79
  L 414.08 477.59
  Q 413.88 477.59 413.88 477.79
  Q 413.82 533.19 413.92 586.93
  Q 413.94 596.15 414.35 605.34
  Q 418.22 692.29 422.23 788.00
  Q 422.66 798.20 422.65 807.82
  Q 422.55 884.99 422.69 961.97
  A 1.18 1.18 0.0 0 0 423.87 963.15
  L 489.31 963.16
  Q 490.28 963.16 490.28 962.19
  Q 490.45 889.10 490.35 806.28
  Q 490.34 797.19 491.19 787.28
  Q 494.17 752.76 497.30 718.48
  Q 502.64 659.86 508.05 599.55
  C 508.33 596.44 511.31 596.24 513.80 596.60"
/>
<path stroke="#576e17" vector-effect="non-scaling-stroke" d="
  M 529.63 491.10
  L 535.30 493.40
  Q 536.06 493.72 535.94 492.90
  Q 535.25 488.17 533.77 483.60
  Q 533.60 483.08 533.08 483.25
  Q 528.53 484.73 524.72 487.16
  C 523.43 487.98 521.91 488.30 520.52 488.90
  Q 520.05 489.11 520.13 489.62
  C 520.55 492.41 522.09 499.07 525.47 499.87
  C 528.59 500.60 529.79 497.79 529.44 495.14
  Q 529.19 493.29 528.96 491.62
  Q 528.84 490.78 529.63 491.10"
/>
<path stroke="#576e17" vector-effect="non-scaling-stroke" d="
  M 504.11 510.22
  C 507.96 504.58 510.71 504.88 516.97 504.26
  A 0.91 0.90 1.2 0 0 517.78 503.49
  C 518.38 499.63 519.44 495.24 518.15 491.50
  Q 517.97 490.98 517.50 491.26
  Q 511.70 494.72 505.82 497.98
  C 502.61 499.75 502.82 507.10 503.00 509.91
  Q 503.12 511.68 504.11 510.22"
/>
<path stroke="#576e17" vector-effect="non-scaling-stroke" d="
  M 515.04 513.12
  Q 515.01 508.45 512.01 512.03
  Q 510.16 514.24 507.77 517.09
  A 9.79 9.77 65.2 0 0 505.51 523.26
  Q 505.42 534.36 505.65 545.98
  Q 505.72 549.97 509.14 551.83
  C 512.68 553.76 514.89 548.53 514.94 545.87
  Q 515.18 530.48 515.04 513.12"
/>
<path stroke="#8f8d8c" vector-effect="non-scaling-stroke" d="
  M 488.51 992.65
  Q 483.22 993.24 478.27 992.95
  C 476.19 992.83 473.60 994.84 471.68 995.65
  Q 459.45 1000.79 446.53 1002.09
  Q 416.62 1005.10 382.72 1000.07
  Q 376.13 999.10 369.86 995.49
  Q 369.37 995.21 368.83 995.41
  C 366.83 996.16 362.24 997.95 362.29 1000.63
  Q 362.38 1004.75 362.29 1008.87
  Q 362.28 1009.50 362.91 1009.48
  Q 427.02 1007.68 488.09 1006.78
  Q 488.91 1006.77 488.91 1005.95
  L 488.95 993.04
  A 0.40 0.39 -3.3 0 0 488.51 992.65"
/>
<path stroke="#8f8d8c" vector-effect="non-scaling-stroke" d="
  M 547.66 993.18
  A 1.47 1.45 57.1 0 0 546.85 993.00
  Q 541.51 993.28 536.08 992.86
  Q 535.42 992.81 535.42 993.47
  L 535.45 1006.20
  A 0.68 0.68 0.0 0 0 536.12 1006.88
  Q 600.21 1007.57 661.41 1009.41
  A 0.42 0.41 -88.7 0 0 661.84 1008.99
  Q 661.88 1004.75 661.83 1000.51
  Q 661.82 999.11 660.55 998.39
  Q 658.20 997.05 656.03 995.57
  A 1.16 1.15 48.2 0 0 654.83 995.50
  Q 647.08 999.67 636.68 1000.88
  Q 610.89 1003.87 587.79 1002.99
  C 573.74 1002.45 559.82 999.92 547.66 993.18"
/>
<path stroke="#8f8d8c" vector-effect="non-scaling-stroke" d="
  M 503.8003 87.3964
  A 3.48 3.48 0.0 0 0 500.3385 83.8982
  L 478.1188 83.7819
  A 3.48 3.48 0.0 0 0 474.6207 87.2436
  L 474.6197 87.4236
  A 3.48 3.48 0.0 0 0 478.0815 90.9218
  L 500.3012 91.0381
  A 3.48 3.48 0.0 0 0 503.7993 87.5764
  L 503.8003 87.3964"
/>
<path stroke="#8f8d8c" vector-effect="non-scaling-stroke" d="
  M 549.9702 87.3260
  A 3.50 3.50 0.0 0 0 546.4763 83.8198
  L 523.7363 83.7802
  A 3.50 3.50 0.0 0 0 520.2302 87.2740
  L 520.2298 87.4740
  A 3.50 3.50 0.0 0 0 523.7237 90.9802
  L 546.4637 91.0198
  A 3.50 3.50 0.0 0 0 549.9698 87.5260
  L 549.9702 87.3260"
/>
<path stroke="#8f8d8c" vector-effect="non-scaling-stroke" d="
  M 493.93 108.17
  A 6.80 6.80 0.0 0 0 487.13 101.37
  A 6.80 6.80 0.0 0 0 480.33 108.17
  A 6.80 6.80 0.0 0 0 487.13 114.97
  A 6.80 6.80 0.0 0 0 493.93 108.17"
/>
<path stroke="#8f8d8c" vector-effect="non-scaling-stroke" d="
  M 543.97 108.14
  A 6.82 6.82 0.0 0 0 537.15 101.32
  A 6.82 6.82 0.0 0 0 530.33 108.14
  A 6.82 6.82 0.0 0 0 537.15 114.96
  A 6.82 6.82 0.0 0 0 543.97 108.14"
/>
<path stroke="#8f8d8c" vector-effect="non-scaling-stroke" d="
  M 507.28 130.82
  C 504.32 129.62 500.84 131.75 501.56 135.05
  C 502.36 138.70 507.37 138.79 510.25 138.37
  Q 515.01 137.67 515.07 133.34
  Q 515.13 128.32 515.20 121.88
  A 2.66 2.63 28.9 0 0 514.76 120.39
  Q 512.51 116.98 510.61 117.62
  Q 508.01 118.49 507.88 120.45
  Q 507.56 125.08 507.82 130.44
  A 0.39 0.39 0.0 0 1 507.28 130.82"
/>
<path stroke="#8f8d8c" vector-effect="non-scaling-stroke" d="
  M 533.5601 152.8063
  A 3.50 3.50 0.0 0 0 530.0662 149.3002
  L 495.5063 149.2398
  A 3.50 3.50 0.0 0 0 492.0002 152.7337
  L 491.9999 152.8937
  A 3.50 3.50 0.0 0 0 495.4938 156.3998
  L 530.0537 156.4602
  A 3.50 3.50 0.0 0 0 533.5598 152.9663
  L 533.5601 152.8063"
/>
<path stroke="#8f8d8c" vector-effect="non-scaling-stroke" d="
  M 596.4763 294.5877
  A 6.63 6.63 0.0 0 0 589.8579 287.9462
  L 548.4379 287.8739
  A 6.63 6.63 0.0 0 0 541.7964 294.4923
  L 541.7637 313.2123
  A 6.63 6.63 0.0 0 0 548.3821 319.8538
  L 589.8021 319.9261
  A 6.63 6.63 0.0 0 0 596.4436 313.3077
  L 596.4763 294.5877"
/>
<path stroke="#8f8d8c" vector-effect="non-scaling-stroke" d="
  M 589.31 295.76
  A 0.65 0.65 0.0 0 0 588.66 295.11
  L 549.70 295.11
  A 0.65 0.65 0.0 0 0 549.05 295.76
  L 549.05 312.04
  A 0.65 0.65 0.0 0 0 549.70 312.69
  L 588.66 312.69
  A 0.65 0.65 0.0 0 0 589.31 312.04
  L 589.31 295.76"
/>
</g>
<path fill="#fcfcfc" d="
  M 1024.00 0.00
  L 1024.00 1024.00
  L 0.00 1024.00
  L 0.00 0.00
  L 1024.00 0.00
  Z
  M 512.53 639.21
  C 516.92 683.53 520.85 729.09 525.73 787.53
  Q 526.57 797.67 526.57 807.47
  Q 526.51 887.29 526.55 963.88
  Q 526.55 969.99 532.96 969.87
  Q 534.05 969.85 533.38 970.71
  Q 527.93 977.62 528.02 987.22
  Q 528.12 997.33 528.13 1007.21
  C 528.14 1011.41 531.37 1014.32 535.42 1014.35
  Q 599.77 1014.75 664.01 1016.94
  C 667.40 1017.06 669.44 1015.01 669.36 1011.77
  Q 669.20 1005.55 669.33 999.34
  C 669.47 992.18 656.28 987.36 650.80 985.57
  Q 631.03 979.13 611.26 974.37
  A 0.86 0.86 0.0 0 1 610.62 973.34
  Q 611.33 970.19 608.64 969.28
  Q 608.03 969.07 608.27 968.47
  C 608.63 967.59 608.80 966.68 608.80 965.74
  Q 608.58 887.62 608.72 809.04
  Q 608.74 800.04 609.15 789.31
  Q 612.76 696.03 616.94 604.39
  C 617.88 583.78 617.46 562.96 617.42 542.38
  A 0.88 0.87 -2.9 0 1 618.21 541.51
  C 623.50 540.97 630.41 541.07 635.08 538.82
  C 639.65 536.61 641.80 532.14 641.44 527.20
  Q 637.63 474.71 634.63 427.78
  Q 634.16 420.40 627.93 416.75
  C 624.85 414.95 621.04 414.95 617.53 415.06
  A 0.31 0.31 0.0 0 1 617.21 414.78
  Q 611.25 356.85 615.69 297.59
  A 1.33 1.33 0.0 0 1 616.72 296.39
  Q 620.95 295.42 624.64 293.17
  Q 634.65 287.06 644.07 277.06
  C 663.64 256.30 683.59 233.97 701.59 210.24
  Q 730.11 172.63 752.77 133.76
  C 758.61 123.74 762.67 114.32 757.44 102.85
  Q 751.55 89.94 735.30 87.44
  Q 693.65 81.03 650.76 78.52
  Q 617.77 76.59 588.97 75.40
  A 0.45 0.44 88.5 0 1 588.54 74.98
  C 586.72 47.83 572.56 22.85 546.25 13.25
  C 531.11 7.72 507.00 5.49 497.55 21.17
  Q 497.13 21.87 496.32 21.78
  C 484.24 20.35 471.26 21.00 460.49 25.91
  C 442.60 34.08 437.33 56.03 435.28 74.12
  Q 435.19 74.90 434.45 74.64
  C 433.71 74.39 433.03 74.56 432.35 74.87
  Q 430.43 75.74 428.47 75.82
  C 382.77 77.52 336.12 80.65 290.42 87.39
  Q 284.49 88.26 280.38 89.84
  C 268.99 94.24 262.76 108.22 265.87 119.78
  C 267.25 124.91 270.32 130.20 273.07 134.85
  Q 293.42 169.25 320.23 205.73
  C 337.07 228.63 357.00 249.06 376.04 270.17
  Q 385.65 280.81 398.62 291.49
  Q 399.33 292.07 399.64 293.05
  Q 408.07 318.95 408.76 346.02
  C 409.39 370.50 407.91 395.26 406.66 419.25
  Q 406.49 422.55 406.11 424.31
  Q 403.81 434.96 401.86 445.56
  Q 400.81 451.25 403.56 454.73
  C 404.59 456.03 406.71 456.68 406.72 458.57
  Q 406.99 522.16 406.87 585.22
  Q 406.85 595.21 407.30 605.25
  Q 411.46 697.02 415.20 789.56
  Q 415.62 799.92 415.63 809.46
  Q 415.72 889.95 415.65 966.20
  C 415.65 966.93 415.86 967.67 416.11 968.35
  A 0.69 0.68 65.5 0 1 415.81 969.17
  Q 413.69 970.38 413.97 973.10
  A 1.34 1.33 -10.0 0 1 412.96 974.53
  Q 391.59 979.68 371.75 986.20
  C 367.06 987.74 354.64 992.46 354.88 998.73
  Q 355.11 1004.83 354.88 1011.74
  C 354.78 1014.79 357.13 1017.10 360.16 1017.00
  Q 420.97 1014.94 489.76 1014.29
  C 493.24 1014.25 496.38 1011.25 496.39 1007.74
  Q 496.42 997.61 496.41 987.31
  Q 496.41 977.30 490.69 970.74
  Q 489.94 969.89 491.07 969.97
  C 494.43 970.22 497.55 968.38 497.53 964.84
  Q 497.19 876.33 497.42 800.74
  Q 497.43 797.71 497.69 794.75
  Q 504.35 720.06 511.99 639.21
  Q 512.25 636.38 512.53 639.21
  Z"
/>
<path fill="#211d1b" d="
  M 512.53 639.21
  Q 512.25 636.38 511.99 639.21
  Q 504.35 720.06 497.69 794.75
  Q 497.43 797.71 497.42 800.74
  Q 497.19 876.33 497.53 964.84
  C 497.55 968.38 494.43 970.22 491.07 969.97
  Q 489.94 969.89 490.69 970.74
  Q 496.41 977.30 496.41 987.31
  Q 496.42 997.61 496.39 1007.74
  C 496.38 1011.25 493.24 1014.25 489.76 1014.29
  Q 420.97 1014.94 360.16 1017.00
  C 357.13 1017.10 354.78 1014.79 354.88 1011.74
  Q 355.11 1004.83 354.88 998.73
  C 354.64 992.46 367.06 987.74 371.75 986.20
  Q 391.59 979.68 412.96 974.53
  A 1.34 1.33 -10.0 0 0 413.97 973.10
  Q 413.69 970.38 415.81 969.17
  A 0.69 0.68 65.5 0 0 416.11 968.35
  C 415.86 967.67 415.65 966.93 415.65 966.20
  Q 415.72 889.95 415.63 809.46
  Q 415.62 799.92 415.20 789.56
  Q 411.46 697.02 407.30 605.25
  Q 406.85 595.21 406.87 585.22
  Q 406.99 522.16 406.72 458.57
  C 406.71 456.68 404.59 456.03 403.56 454.73
  Q 400.81 451.25 401.86 445.56
  Q 403.81 434.96 406.11 424.31
  Q 406.49 422.55 406.66 419.25
  C 407.91 395.26 409.39 370.50 408.76 346.02
  Q 408.07 318.95 399.64 293.05
  Q 399.33 292.07 398.62 291.49
  Q 385.65 280.81 376.04 270.17
  C 357.00 249.06 337.07 228.63 320.23 205.73
  Q 293.42 169.25 273.07 134.85
  C 270.32 130.20 267.25 124.91 265.87 119.78
  C 262.76 108.22 268.99 94.24 280.38 89.84
  Q 284.49 88.26 290.42 87.39
  C 336.12 80.65 382.77 77.52 428.47 75.82
  Q 430.43 75.74 432.35 74.87
  C 433.03 74.56 433.71 74.39 434.45 74.64
  Q 435.19 74.90 435.28 74.12
  C 437.33 56.03 442.60 34.08 460.49 25.91
  C 471.26 21.00 484.24 20.35 496.32 21.78
  Q 497.13 21.87 497.55 21.17
  C 507.00 5.49 531.11 7.72 546.25 13.25
  C 572.56 22.85 586.72 47.83 588.54 74.98
  A 0.45 0.44 88.5 0 0 588.97 75.40
  Q 617.77 76.59 650.76 78.52
  Q 693.65 81.03 735.30 87.44
  Q 751.55 89.94 757.44 102.85
  C 762.67 114.32 758.61 123.74 752.77 133.76
  Q 730.11 172.63 701.59 210.24
  C 683.59 233.97 663.64 256.30 644.07 277.06
  Q 634.65 287.06 624.64 293.17
  Q 620.95 295.42 616.72 296.39
  A 1.33 1.33 0.0 0 0 615.69 297.59
  Q 611.25 356.85 617.21 414.78
  A 0.31 0.31 0.0 0 0 617.53 415.06
  C 621.04 414.95 624.85 414.95 627.93 416.75
  Q 634.16 420.40 634.63 427.78
  Q 637.63 474.71 641.44 527.20
  C 641.80 532.14 639.65 536.61 635.08 538.82
  C 630.41 541.07 623.50 540.97 618.21 541.51
  A 0.88 0.87 -2.9 0 0 617.42 542.38
  C 617.46 562.96 617.88 583.78 616.94 604.39
  Q 612.76 696.03 609.15 789.31
  Q 608.74 800.04 608.72 809.04
  Q 608.58 887.62 608.80 965.74
  C 608.80 966.68 608.63 967.59 608.27 968.47
  Q 608.03 969.07 608.64 969.28
  Q 611.33 970.19 610.62 973.34
  A 0.86 0.86 0.0 0 0 611.26 974.37
  Q 631.03 979.13 650.80 985.57
  C 656.28 987.36 669.47 992.18 669.33 999.34
  Q 669.20 1005.55 669.36 1011.77
  C 669.44 1015.01 667.40 1017.06 664.01 1016.94
  Q 599.77 1014.75 535.42 1014.35
  C 531.37 1014.32 528.14 1011.41 528.13 1007.21
  Q 528.12 997.33 528.02 987.22
  Q 527.93 977.62 533.38 970.71
  Q 534.05 969.85 532.96 969.87
  Q 526.55 969.99 526.55 963.88
  Q 526.51 887.29 526.57 807.47
  Q 526.57 797.67 525.73 787.53
  C 520.85 729.09 516.92 683.53 512.53 639.21
  Z
  M 529.36 80.06
  Q 517.53 75.43 507.22 67.55
  Q 506.40 66.91 506.57 67.94
  Q 507.68 74.68 509.83 81.93
  Q 510.16 83.01 510.08 84.23
  A 0.60 0.60 0.0 0 1 509.41 84.79
  Q 505.71 84.38 502.91 82.54
  Q 491.68 75.17 484.14 64.42
  A 0.54 0.54 0.0 0 0 483.22 64.48
  Q 475.07 79.46 460.56 86.63
  A 0.82 0.82 0.0 0 0 460.11 87.31
  L 458.31 121.01
  A 2.59 2.58 77.2 0 1 456.98 123.13
  L 455.41 124.00
  Q 454.94 124.25 454.94 124.78
  C 454.70 153.66 474.28 180.98 503.77 185.59
  C 522.40 188.50 540.99 181.79 553.60 167.69
  Q 569.24 150.20 569.70 125.03
  Q 569.72 124.07 568.80 123.77
  C 567.42 123.33 566.13 122.27 566.05 120.73
  Q 565.02 102.18 563.98 86.60
  A 0.81 0.80 8.1 0 0 563.46 85.91
  C 550.97 81.31 537.36 75.70 525.82 68.44
  Q 524.26 67.46 524.91 69.18
  Q 526.86 74.36 530.02 79.24
  Q 530.97 80.69 529.36 80.06
  Z
  M 425.52 121.64
  A 0.64 0.64 0.0 0 0 426.09 121.08
  C 426.91 114.17 429.54 108.49 433.71 103.16
  Q 434.15 102.59 433.98 101.89
  Q 431.98 93.49 432.28 83.47
  Q 432.30 82.92 431.75 82.94
  L 411.70 83.69
  Q 411.12 83.72 411.12 84.30
  L 411.20 122.80
  A 0.32 0.31 86.8 0 0 411.55 123.12
  L 425.52 121.64
  Z
  M 590.04 102.61
  C 594.84 107.64 597.67 113.49 598.27 120.71
  A 0.71 0.70 1.1 0 0 598.89 121.34
  L 613.06 123.11
  A 0.54 0.54 0.0 0 0 613.66 122.57
  L 613.66 84.19
  A 0.61 0.60 1.0 0 0 613.07 83.59
  L 592.03 82.93
  A 0.41 0.40 1.4 0 0 591.61 83.32
  Q 591.41 90.05 590.87 96.49
  Q 590.66 99.03 589.80 101.52
  Q 589.58 102.14 590.04 102.61
  Z
  M 673.98 130.61
  A 2.62 2.62 0.0 0 1 674.60 134.08
  Q 672.99 136.62 671.06 138.91
  Q 659.46 152.74 644.95 166.47
  A 1.41 1.40 43.7 0 0 645.00 168.56
  L 692.25 209.26
  A 0.72 0.72 0.0 0 0 693.23 209.22
  Q 694.90 207.52 696.32 205.57
  Q 709.92 186.91 724.33 165.85
  Q 739.15 144.19 750.17 123.36
  Q 752.29 119.36 752.54 116.66
  Q 753.79 103.36 742.63 96.87
  Q 739.93 95.31 736.81 94.82
  Q 708.75 90.42 680.69 87.97
  Q 650.95 85.38 621.34 84.11
  Q 620.72 84.08 620.72 84.70
  L 620.83 122.76
  A 1.22 1.22 0.0 0 0 621.92 123.97
  Q 648.15 126.94 670.75 129.35
  Q 672.58 129.54 673.98 130.61
  Z
  M 350.76 135.02
  C 348.78 132.61 350.30 129.92 353.24 129.62
  Q 377.40 127.11 402.94 124.18
  A 1.18 1.17 86.7 0 0 403.98 123.01
  L 403.92 84.87
  A 0.53 0.52 88.5 0 0 403.37 84.34
  Q 347.50 86.95 292.40 94.12
  Q 287.36 94.78 284.39 95.93
  C 276.56 98.97 271.93 106.43 272.26 114.78
  Q 272.42 118.88 275.02 123.86
  Q 278.06 129.69 281.23 134.96
  Q 303.45 171.83 330.12 207.08
  Q 330.89 208.09 331.93 208.86
  Q 332.32 209.15 332.68 208.83
  Q 353.14 190.74 369.93 176.79
  Q 375.27 172.35 380.33 167.73
  A 1.16 1.15 44.8 0 0 380.32 166.01
  Q 364.37 151.61 350.76 135.02
  Z
  M 448.00 121.89
  C 448.09 120.63 448.64 119.72 448.87 118.53
  Q 448.99 117.95 448.72 117.41
  L 442.84 105.58
  A 0.61 0.61 0.0 0 0 441.95 105.35
  C 440.09 106.62 438.19 108.49 437.05 110.45
  Q 429.17 123.94 437.84 137.21
  Q 442.24 143.94 449.84 146.31
  A 0.58 0.58 0.0 0 0 450.57 145.59
  Q 447.17 133.76 448.00 121.89
  Z
  M 582.75 105.54
  A 0.54 0.53 29.1 0 0 582.00 105.75
  L 576.12 117.11
  Q 575.86 117.61 575.92 118.17
  C 576.10 119.78 576.67 121.27 576.72 122.93
  Q 577.06 135.00 573.82 145.66
  A 0.44 0.43 2.3 0 0 574.33 146.21
  C 580.55 144.91 586.00 139.50 588.66 133.98
  Q 595.53 119.74 585.55 107.90
  Q 584.37 106.49 582.75 105.54
  Z
  M 598.51 128.45
  A 0.62 0.59 8.2 0 0 597.84 128.93
  C 595.42 142.02 585.23 152.79 571.63 154.13
  A 1.00 1.00 0.0 0 0 570.84 154.69
  Q 560.52 176.56 539.13 187.99
  Q 538.46 188.34 538.42 189.10
  Q 538.27 192.02 539.39 194.50
  C 541.53 199.23 546.29 195.17 549.52 194.82
  Q 555.75 194.16 559.17 198.98
  A 0.71 0.71 0.0 0 0 559.90 199.26
  Q 575.15 195.81 589.35 191.58
  C 619.74 182.52 643.12 159.99 663.88 136.19
  A 0.28 0.27 -65.8 0 0 663.71 135.73
  L 598.51 128.45
  Z
  M 471.14 194.89
  C 474.22 194.13 476.81 195.43 479.51 196.66
  C 481.49 197.57 487.84 198.83 488.61 195.47
  Q 489.15 193.07 489.10 190.36
  A 2.05 2.04 -79.0 0 0 487.87 188.53
  C 473.27 182.23 460.88 169.72 453.90 155.00
  A 1.68 1.68 0.0 0 0 452.55 154.06
  C 439.53 152.89 429.83 142.12 426.74 129.58
  A 1.15 1.15 0.0 0 0 425.50 128.71
  L 361.76 135.90
  Q 361.24 135.96 361.58 136.36
  Q 379.75 157.98 401.57 174.03
  Q 414.54 183.57 427.62 188.70
  C 439.36 193.31 451.66 196.08 464.02 199.35
  Q 464.80 199.55 465.29 198.91
  Q 467.75 195.73 471.14 194.89
  Z
  M 489.44 248.47
  C 487.69 250.54 485.06 250.21 483.71 247.95
  Q 482.50 245.92 481.62 243.88
  Q 474.30 226.99 465.77 208.01
  A 2.71 2.71 0.0 0 0 463.87 206.47
  Q 449.79 203.39 435.33 199.05
  Q 414.80 192.90 397.46 179.93
  Q 392.49 176.21 387.63 172.33
  Q 386.86 171.73 386.12 172.36
  L 336.80 214.61
  A 0.56 0.55 -41.0 0 0 336.74 215.40
  Q 359.56 242.02 383.11 266.96
  C 389.20 273.42 395.76 279.56 402.48 285.38
  Q 405.34 287.87 406.44 290.96
  Q 412.49 307.97 414.52 327.12
  Q 417.09 351.49 415.60 381.02
  Q 414.73 398.37 414.11 416.05
  C 413.71 427.26 410.30 437.41 408.72 448.50
  A 1.84 1.83 -74.5 0 0 409.82 450.45
  Q 412.81 451.74 415.89 451.38
  Q 435.17 449.15 453.17 451.16
  Q 465.70 452.56 477.43 454.37
  Q 479.94 454.76 482.77 454.91
  Q 483.70 454.96 483.70 454.03
  Q 483.65 437.58 483.23 420.81
  Q 483.07 414.24 484.08 406.57
  Q 485.43 396.29 486.51 386.07
  Q 486.57 385.50 486.09 385.17
  Q 454.43 363.45 424.81 337.39
  Q 422.76 335.59 424.00 333.16
  Q 424.21 332.73 424.55 332.41
  Q 427.10 329.99 429.77 332.28
  Q 458.33 356.87 486.80 377.07
  A 0.50 0.50 0.0 0 0 487.59 376.72
  Q 495.04 315.21 502.25 256.28
  C 502.51 254.17 503.18 252.10 503.51 250.00
  A 1.51 1.48 -66.2 0 0 503.00 248.64
  C 500.53 246.55 500.73 242.01 500.28 238.97
  A 0.52 0.52 0.0 0 0 499.43 238.64
  Q 493.98 243.08 489.44 248.47
  Z
  M 637.02 173.13
  C 633.36 176.48 629.44 179.48 625.19 181.90
  Q 624.55 182.26 624.60 182.99
  Q 625.26 194.41 624.69 208.18
  Q 623.00 249.21 616.43 288.34
  A 0.37 0.37 0.0 0 0 616.89 288.76
  Q 619.69 287.96 622.07 286.38
  Q 630.19 280.99 637.51 273.31
  Q 663.67 245.87 688.10 216.01
  A 0.85 0.85 0.0 0 0 687.99 214.83
  L 639.32 173.09
  A 1.74 1.73 43.9 0 0 637.02 173.13
  Z
  M 521.07 248.31
  Q 520.71 248.49 520.42 248.77
  Q 520.02 249.16 520.16 249.70
  Q 521.08 253.21 521.46 256.01
  Q 528.71 309.26 536.90 373.67
  Q 539.34 392.83 541.00 409.86
  Q 541.05 410.31 541.46 410.52
  L 561.77 420.68
  A 2.94 2.92 52.4 0 0 563.63 420.93
  C 568.65 419.92 576.53 418.90 581.05 422.02
  Q 581.52 422.34 581.92 421.94
  Q 585.42 418.52 590.53 417.53
  Q 600.35 415.62 609.72 415.42
  A 0.34 0.34 0.0 0 0 610.06 415.04
  Q 604.24 357.62 608.21 300.24
  Q 608.87 290.71 610.48 280.27
  Q 614.94 251.39 617.05 218.31
  Q 618.10 201.88 617.67 187.96
  A 0.52 0.51 -15.5 0 0 616.90 187.53
  C 599.24 197.53 580.18 202.18 560.59 206.47
  A 1.85 1.85 0.0 0 0 559.30 207.52
  L 541.57 247.00
  Q 539.21 252.24 535.10 248.22
  L 524.59 237.91
  A 0.46 0.46 0.0 0 0 523.81 238.15
  Q 523.04 241.91 522.79 245.68
  A 3.20 3.00 80.0 0 1 521.07 248.31
  Z
  M 531.76 197.85
  L 531.53 191.41
  A 0.76 0.75 80.5 0 0 530.56 190.71
  Q 513.68 195.75 496.37 191.35
  A 0.38 0.38 0.0 0 0 495.89 191.73
  Q 496.00 195.49 495.66 199.41
  C 495.45 201.78 492.71 202.55 490.79 203.08
  A 0.39 0.39 0.0 0 0 490.70 203.79
  Q 500.64 209.55 511.56 214.53
  Q 512.07 214.76 512.57 214.52
  Q 524.90 208.69 536.78 201.94
  A 0.41 0.41 0.0 0 0 536.72 201.20
  L 533.36 200.02
  A 2.39 2.39 0.0 0 1 531.76 197.85
  Z
  M 488.05 238.99
  C 494.14 233.26 500.64 227.20 506.19 220.79
  A 0.85 0.85 0.0 0 0 505.93 219.47
  Q 490.87 211.90 476.20 203.09
  Q 474.14 201.86 471.78 202.01
  A 0.64 0.63 -13.4 0 0 471.23 202.90
  L 487.22 238.83
  A 0.52 0.52 0.0 0 0 488.05 238.99
  Z
  M 517.54 219.79
  A 0.20 0.19 -30.0 0 0 517.46 220.07
  Q 518.02 220.98 518.76 221.74
  Q 527.35 230.62 536.48 239.07
  A 0.50 0.50 0.0 0 0 537.28 238.91
  Q 545.20 221.77 552.93 204.43
  Q 553.48 203.19 552.73 202.50
  A 2.29 2.29 0.0 0 0 550.03 202.23
  Q 534.62 211.47 517.54 219.79
  Z
  M 506.71 231.82
  A 2.24 2.22 59.7 0 0 506.20 233.79
  Q 507.02 237.54 507.93 241.87
  Q 508.31 243.68 510.01 244.23
  Q 514.89 245.78 515.78 241.31
  Q 516.53 237.54 517.39 233.57
  C 517.73 231.97 517.59 230.79 516.26 229.72
  Q 514.12 228.02 512.16 226.64
  Q 511.61 226.25 511.16 226.76
  L 506.71 231.82
  Z
  M 515.34 273.00
  A 0.91 0.91 0.0 0 0 516.25 271.99
  L 515.60 265.82
  A 0.91 0.91 0.0 0 0 514.74 265.00
  L 509.11 264.73
  A 0.91 0.91 0.0 0 0 508.16 265.57
  L 507.65 271.95
  A 0.91 0.91 0.0 0 0 508.55 272.93
  L 515.34 273.00
  Z
  M 506.37 286.59
  A 0.82 0.82 0.0 0 0 505.56 287.30
  L 504.67 294.30
  A 0.82 0.82 0.0 0 0 505.48 295.23
  L 518.73 295.18
  A 0.82 0.82 0.0 0 0 519.54 294.25
  L 518.60 287.25
  A 0.82 0.82 0.0 0 0 517.78 286.54
  L 506.37 286.59
  Z
  M 503.37 309.07
  A 0.65 0.65 0.0 0 0 502.72 309.66
  L 501.97 317.69
  A 0.65 0.65 0.0 0 0 502.61 318.40
  L 521.59 318.39
  A 0.65 0.65 0.0 0 0 522.24 317.68
  L 521.47 309.65
  A 0.65 0.65 0.0 0 0 520.82 309.06
  L 503.37 309.07
  Z
  M 524.44 341.97
  A 0.95 0.95 0.0 0 0 525.38 340.91
  L 524.45 333.31
  A 0.95 0.95 0.0 0 0 523.51 332.47
  L 500.99 332.52
  A 0.95 0.95 0.0 0 0 500.05 333.36
  L 499.16 340.96
  A 0.95 0.95 0.0 0 0 500.11 342.02
  L 524.44 341.97
  Z
  M 498.05 355.63
  A 0.88 0.88 0.0 0 0 497.18 356.41
  L 496.29 364.74
  A 0.88 0.88 0.0 0 0 497.17 365.72
  L 527.53 365.62
  A 0.88 0.88 0.0 0 0 528.40 364.64
  L 527.46 356.30
  A 0.88 0.88 0.0 0 0 526.58 355.52
  L 498.05 355.63
  Z
  M 531.27 388.73
  L 530.56 380.55
  A 0.88 0.87 -2.2 0 0 529.70 379.76
  Q 507.69 379.51 495.56 379.86
  Q 494.08 379.90 494.13 381.39
  A 1.40 1.40 0.0 0 0 494.77 382.53
  L 504.07 388.64
  A 3.47 3.43 61.3 0 0 505.95 389.20
  L 530.71 389.33
  Q 531.32 389.33 531.27 388.73
  Z
  M 531.46 413.23
  C 526.09 410.61 520.74 407.09 515.50 403.72
  C 514.14 402.85 512.34 402.39 510.72 402.37
  Q 501.34 402.26 492.55 402.54
  A 0.88 0.88 0.0 0 0 491.71 403.30
  L 490.52 412.53
  A 0.85 0.85 0.0 0 0 491.38 413.49
  Q 511.24 413.15 531.36 413.65
  Q 532.37 413.67 531.46 413.23
  Z
  M 529.71 402.70
  Q 528.60 402.62 529.54 403.21
  Q 530.78 403.98 532.18 404.65
  Q 532.60 404.85 532.74 404.40
  Q 532.78 404.26 532.77 404.11
  Q 532.74 403.72 532.40 403.53
  Q 531.09 402.79 529.71 402.70
  Z
  M 541.77 418.66
  A 0.43 0.43 0.0 0 0 541.14 419.04
  L 541.21 424.80
  A 0.43 0.43 0.0 0 0 541.73 425.22
  L 549.63 423.66
  A 0.43 0.43 0.0 0 0 549.74 422.86
  L 541.77 418.66
  Z
  M 633.77 518.24
  Q 630.65 476.33 627.42 430.00
  C 627.09 425.27 626.12 422.03 620.87 421.89
  Q 609.70 421.57 596.83 423.28
  C 593.32 423.75 586.83 424.77 586.81 429.30
  Q 586.79 431.31 587.04 433.38
  Q 592.93 483.98 598.93 532.31
  C 599.47 536.63 602.75 536.52 606.10 536.07
  Q 617.12 534.57 628.71 533.66
  Q 634.53 533.21 634.32 527.79
  Q 634.14 523.25 633.77 518.24
  Z
  M 528.44 437.32
  A 1.51 1.51 0.0 0 0 529.73 436.61
  L 534.21 429.45
  A 1.51 1.51 0.0 0 0 532.94 427.14
  L 491.64 427.01
  A 1.51 1.51 0.0 0 0 490.12 428.54
  L 490.23 435.73
  A 1.51 1.51 0.0 0 0 491.73 437.21
  L 528.44 437.32
  Z
  M 573.96 427.12
  C 566.10 426.97 557.10 429.10 548.96 430.55
  Q 537.20 432.64 534.67 444.28
  Q 534.46 445.23 534.70 446.54
  Q 542.94 492.79 551.23 538.72
  Q 552.12 543.63 556.99 542.88
  Q 571.23 540.70 585.74 538.58
  Q 592.25 537.63 591.52 531.57
  Q 585.42 480.89 579.53 432.27
  Q 578.92 427.21 573.96 427.12
  Z
  M 513.45 462.39
  C 517.05 457.72 520.96 454.46 526.60 452.67
  Q 529.01 451.90 526.57 451.23
  Q 525.75 451.00 524.38 451.00
  Q 507.09 451.00 492.06 451.07
  Q 491.44 451.07 491.06 451.57
  Q 490.59 452.19 490.90 452.98
  Q 491.20 453.73 491.89 454.10
  Q 501.48 459.18 511.75 462.88
  A 1.51 1.50 28.8 0 0 513.45 462.39
  Z
  M 450.21 469.80
  L 450.25 458.99
  A 0.99 0.98 2.2 0 0 449.34 458.01
  C 437.16 457.05 426.15 457.90 414.32 458.49
  A 0.49 0.49 0.0 0 0 413.86 458.98
  L 413.81 469.49
  Q 413.81 470.16 414.49 470.16
  L 449.70 470.30
  A 0.51 0.50 -0.0 0 0 450.21 469.80
  Z
  M 502.98 469.67
  A 0.24 0.24 0.0 0 0 503.16 469.38
  Q 503.02 468.81 502.51 468.53
  Q 497.64 465.87 492.64 463.39
  C 488.81 461.49 484.85 462.33 480.97 461.91
  Q 470.18 460.74 458.37 458.98
  A 0.60 0.59 -85.8 0 0 457.69 459.57
  L 457.72 469.69
  A 0.47 0.47 0.0 0 0 458.19 470.16
  Q 478.39 470.14 498.75 470.09
  Q 500.76 470.09 502.98 469.67
  Z
  M 532.03 476.06
  A 0.97 0.97 0.0 0 0 532.61 474.98
  L 529.67 460.03
  Q 529.49 459.11 528.59 459.38
  Q 525.01 460.45 522.86 463.19
  C 519.22 467.84 513.80 471.70 508.56 474.53
  Q 488.73 485.23 468.02 496.22
  Q 467.34 496.58 467.68 497.27
  L 471.85 505.61
  Q 472.15 506.21 472.74 505.90
  Q 494.87 494.35 518.91 482.13
  Q 525.42 478.81 532.03 476.06
  Z
  M 513.80 596.60
  C 515.88 596.90 516.10 598.31 516.29 600.00
  Q 517.41 610.26 518.38 621.09
  Q 525.73 703.40 532.71 786.13
  Q 533.55 796.00 533.52 805.66
  Q 533.32 883.49 533.72 962.23
  A 0.85 0.85 0.0 0 0 534.56 963.08
  L 600.54 963.23
  Q 601.61 963.23 601.62 962.16
  Q 602.01 887.23 601.65 811.23
  Q 601.60 802.04 601.90 793.71
  Q 605.27 699.41 609.71 606.28
  C 610.70 585.60 610.26 565.34 610.11 543.72
  Q 610.10 542.84 609.23 542.93
  C 604.69 543.41 600.32 543.71 596.32 541.13
  A 0.77 0.77 0.0 0 0 595.39 541.20
  Q 591.24 544.96 584.09 545.88
  Q 573.39 547.24 563.27 549.04
  C 553.85 550.72 546.05 549.94 544.05 539.01
  Q 541.00 522.37 538.07 506.44
  Q 537.63 504.02 536.94 501.54
  A 0.37 0.37 0.0 0 0 536.31 501.39
  C 532.08 505.93 529.46 508.31 522.75 507.04
  Q 522.02 506.90 522.04 507.64
  Q 522.50 524.78 522.11 546.09
  Q 521.99 552.94 516.73 556.85
  Q 511.54 560.70 506.41 558.36
  Q 498.29 554.66 498.47 544.87
  Q 498.67 533.51 498.71 522.33
  Q 498.71 520.91 498.06 519.66
  C 496.79 517.21 495.91 515.34 496.21 512.39
  Q 496.73 507.24 497.42 502.16
  A 0.31 0.31 0.0 0 0 496.98 501.84
  Q 485.62 507.18 474.17 513.18
  Q 469.37 515.69 466.94 511.25
  Q 463.71 505.33 460.30 498.11
  Q 459.46 496.34 459.49 494.47
  Q 459.50 493.97 459.82 493.59
  Q 461.53 491.54 463.70 490.41
  Q 474.36 484.82 484.43 478.76
  Q 485.66 478.02 484.23 478.01
  L 458.74 477.87
  A 0.85 0.85 0.0 0 0 457.88 478.73
  Q 457.91 480.78 457.06 482.40
  Q 456.75 482.99 456.09 483.10
  C 453.36 483.56 449.69 483.43 449.99 479.67
  Q 450.14 477.80 448.27 477.79
  L 414.08 477.59
  Q 413.88 477.59 413.88 477.79
  Q 413.82 533.19 413.92 586.93
  Q 413.94 596.15 414.35 605.34
  Q 418.22 692.29 422.23 788.00
  Q 422.66 798.20 422.65 807.82
  Q 422.55 884.99 422.69 961.97
  A 1.18 1.18 0.0 0 0 423.87 963.15
  L 489.31 963.16
  Q 490.28 963.16 490.28 962.19
  Q 490.45 889.10 490.35 806.28
  Q 490.34 797.19 491.19 787.28
  Q 494.17 752.76 497.30 718.48
  Q 502.64 659.86 508.05 599.55
  C 508.33 596.44 511.31 596.24 513.80 596.60
  Z
  M 529.63 491.10
  L 535.30 493.40
  Q 536.06 493.72 535.94 492.90
  Q 535.25 488.17 533.77 483.60
  Q 533.60 483.08 533.08 483.25
  Q 528.53 484.73 524.72 487.16
  C 523.43 487.98 521.91 488.30 520.52 488.90
  Q 520.05 489.11 520.13 489.62
  C 520.55 492.41 522.09 499.07 525.47 499.87
  C 528.59 500.60 529.79 497.79 529.44 495.14
  Q 529.19 493.29 528.96 491.62
  Q 528.84 490.78 529.63 491.10
  Z
  M 504.11 510.22
  C 507.96 504.58 510.71 504.88 516.97 504.26
  A 0.91 0.90 1.2 0 0 517.78 503.49
  C 518.38 499.63 519.44 495.24 518.15 491.50
  Q 517.97 490.98 517.50 491.26
  Q 511.70 494.72 505.82 497.98
  C 502.61 499.75 502.82 507.10 503.00 509.91
  Q 503.12 511.68 504.11 510.22
  Z
  M 515.04 513.12
  Q 515.01 508.45 512.01 512.03
  Q 510.16 514.24 507.77 517.09
  A 9.79 9.77 65.2 0 0 505.51 523.26
  Q 505.42 534.36 505.65 545.98
  Q 505.72 549.97 509.14 551.83
  C 512.68 553.76 514.89 548.53 514.94 545.87
  Q 515.18 530.48 515.04 513.12
  Z
  M 488.51 992.65
  Q 483.22 993.24 478.27 992.95
  C 476.19 992.83 473.60 994.84 471.68 995.65
  Q 459.45 1000.79 446.53 1002.09
  Q 416.62 1005.10 382.72 1000.07
  Q 376.13 999.10 369.86 995.49
  Q 369.37 995.21 368.83 995.41
  C 366.83 996.16 362.24 997.95 362.29 1000.63
  Q 362.38 1004.75 362.29 1008.87
  Q 362.28 1009.50 362.91 1009.48
  Q 427.02 1007.68 488.09 1006.78
  Q 488.91 1006.77 488.91 1005.95
  L 488.95 993.04
  A 0.40 0.39 -3.3 0 0 488.51 992.65
  Z
  M 547.66 993.18
  A 1.47 1.45 57.1 0 0 546.85 993.00
  Q 541.51 993.28 536.08 992.86
  Q 535.42 992.81 535.42 993.47
  L 535.45 1006.20
  A 0.68 0.68 0.0 0 0 536.12 1006.88
  Q 600.21 1007.57 661.41 1009.41
  A 0.42 0.41 -88.7 0 0 661.84 1008.99
  Q 661.88 1004.75 661.83 1000.51
  Q 661.82 999.11 660.55 998.39
  Q 658.20 997.05 656.03 995.57
  A 1.16 1.15 48.2 0 0 654.83 995.50
  Q 647.08 999.67 636.68 1000.88
  Q 610.89 1003.87 587.79 1002.99
  C 573.74 1002.45 559.82 999.92 547.66 993.18
  Z"
/>
<path fill="#fcfcfc" d="
  M 529.36 80.06
  Q 530.97 80.69 530.02 79.24
  Q 526.86 74.36 524.91 69.18
  Q 524.26 67.46 525.82 68.44
  C 537.36 75.70 550.97 81.31 563.46 85.91
  A 0.81 0.80 8.1 0 1 563.98 86.60
  Q 565.02 102.18 566.05 120.73
  C 566.13 122.27 567.42 123.33 568.80 123.77
  Q 569.72 124.07 569.70 125.03
  Q 569.24 150.20 553.60 167.69
  C 540.99 181.79 522.40 188.50 503.77 185.59
  C 474.28 180.98 454.70 153.66 454.94 124.78
  Q 454.94 124.25 455.41 124.00
  L 456.98 123.13
  A 2.59 2.58 77.2 0 0 458.31 121.01
  L 460.11 87.31
  A 0.82 0.82 0.0 0 1 460.56 86.63
  Q 475.07 79.46 483.22 64.48
  A 0.54 0.54 0.0 0 1 484.14 64.42
  Q 491.68 75.17 502.91 82.54
  Q 505.71 84.38 509.41 84.79
  A 0.60 0.60 0.0 0 0 510.08 84.23
  Q 510.16 83.01 509.83 81.93
  Q 507.68 74.68 506.57 67.94
  Q 506.40 66.91 507.22 67.55
  Q 517.53 75.43 529.36 80.06
  Z
  M 503.8003 87.3964
  A 3.48 3.48 0.0 0 0 500.3385 83.8982
  L 478.1188 83.7819
  A 3.48 3.48 0.0 0 0 474.6207 87.2436
  L 474.6197 87.4236
  A 3.48 3.48 0.0 0 0 478.0815 90.9218
  L 500.3012 91.0381
  A 3.48 3.48 0.0 0 0 503.7993 87.5764
  L 503.8003 87.3964
  Z
  M 549.9702 87.3260
  A 3.50 3.50 0.0 0 0 546.4763 83.8198
  L 523.7363 83.7802
  A 3.50 3.50 0.0 0 0 520.2302 87.2740
  L 520.2298 87.4740
  A 3.50 3.50 0.0 0 0 523.7237 90.9802
  L 546.4637 91.0198
  A 3.50 3.50 0.0 0 0 549.9698 87.5260
  L 549.9702 87.3260
  Z
  M 493.93 108.17
  A 6.80 6.80 0.0 0 0 487.13 101.37
  A 6.80 6.80 0.0 0 0 480.33 108.17
  A 6.80 6.80 0.0 0 0 487.13 114.97
  A 6.80 6.80 0.0 0 0 493.93 108.17
  Z
  M 543.97 108.14
  A 6.82 6.82 0.0 0 0 537.15 101.32
  A 6.82 6.82 0.0 0 0 530.33 108.14
  A 6.82 6.82 0.0 0 0 537.15 114.96
  A 6.82 6.82 0.0 0 0 543.97 108.14
  Z
  M 507.28 130.82
  C 504.32 129.62 500.84 131.75 501.56 135.05
  C 502.36 138.70 507.37 138.79 510.25 138.37
  Q 515.01 137.67 515.07 133.34
  Q 515.13 128.32 515.20 121.88
  A 2.66 2.63 28.9 0 0 514.76 120.39
  Q 512.51 116.98 510.61 117.62
  Q 508.01 118.49 507.88 120.45
  Q 507.56 125.08 507.82 130.44
  A 0.39 0.39 0.0 0 1 507.28 130.82
  Z
  M 533.5601 152.8063
  A 3.50 3.50 0.0 0 0 530.0662 149.3002
  L 495.5063 149.2398
  A 3.50 3.50 0.0 0 0 492.0002 152.7337
  L 491.9999 152.8937
  A 3.50 3.50 0.0 0 0 495.4938 156.3998
  L 530.0537 156.4602
  A 3.50 3.50 0.0 0 0 533.5598 152.9663
  L 533.5601 152.8063
  Z"
/>
<path fill="#fcfcfc" d="
  M 425.52 121.64
  L 411.55 123.12
  A 0.32 0.31 86.8 0 1 411.20 122.80
  L 411.12 84.30
  Q 411.12 83.72 411.70 83.69
  L 431.75 82.94
  Q 432.30 82.92 432.28 83.47
  Q 431.98 93.49 433.98 101.89
  Q 434.15 102.59 433.71 103.16
  C 429.54 108.49 426.91 114.17 426.09 121.08
  A 0.64 0.64 0.0 0 1 425.52 121.64
  Z"
/>
<path fill="#fcfcfc" d="
  M 598.27 120.71
  C 597.67 113.49 594.84 107.64 590.04 102.61
  Q 589.58 102.14 589.80 101.52
  Q 590.66 99.03 590.87 96.49
  Q 591.41 90.05 591.61 83.32
  A 0.41 0.40 1.4 0 1 592.03 82.93
  L 613.07 83.59
  A 0.61 0.60 1.0 0 1 613.66 84.19
  L 613.66 122.57
  A 0.54 0.54 0.0 0 1 613.06 123.11
  L 598.89 121.34
  A 0.71 0.70 1.1 0 1 598.27 120.71
  Z"
/>
<rect fill="#211d1b" x="-14.59" y="-3.57" transform="translate(489.21,87.41) rotate(0.3)" width="29.18" height="7.14" rx="3.48"/>
<rect fill="#211d1b" x="-14.87" y="-3.60" transform="translate(535.10,87.40) rotate(0.1)" width="29.74" height="7.20" rx="3.50"/>
<path fill="#8cbf13" d="
  M 673.98 130.61
  Q 672.58 129.54 670.75 129.35
  Q 648.15 126.94 621.92 123.97
  A 1.22 1.22 0.0 0 1 620.83 122.76
  L 620.72 84.70
  Q 620.72 84.08 621.34 84.11
  Q 650.95 85.38 680.69 87.97
  Q 708.75 90.42 736.81 94.82
  Q 739.93 95.31 742.63 96.87
  Q 753.79 103.36 752.54 116.66
  Q 752.29 119.36 750.17 123.36
  Q 739.15 144.19 724.33 165.85
  Q 709.92 186.91 696.32 205.57
  Q 694.90 207.52 693.23 209.22
  A 0.72 0.72 0.0 0 1 692.25 209.26
  L 645.00 168.56
  A 1.41 1.40 43.7 0 1 644.95 166.47
  Q 659.46 152.74 671.06 138.91
  Q 672.99 136.62 674.60 134.08
  A 2.62 2.62 0.0 0 0 673.98 130.61
  Z"
/>
<path fill="#8cbf13" d="
  M 353.24 129.62
  C 350.30 129.92 348.78 132.61 350.76 135.02
  Q 364.37 151.61 380.32 166.01
  A 1.16 1.15 44.8 0 1 380.33 167.73
  Q 375.27 172.35 369.93 176.79
  Q 353.14 190.74 332.68 208.83
  Q 332.32 209.15 331.93 208.86
  Q 330.89 208.09 330.12 207.08
  Q 303.45 171.83 281.23 134.96
  Q 278.06 129.69 275.02 123.86
  Q 272.42 118.88 272.26 114.78
  C 271.93 106.43 276.56 98.97 284.39 95.93
  Q 287.36 94.78 292.40 94.12
  Q 347.50 86.95 403.37 84.34
  A 0.53 0.52 88.5 0 1 403.92 84.87
  L 403.98 123.01
  A 1.18 1.17 86.7 0 1 402.94 124.18
  Q 377.40 127.11 353.24 129.62
  Z"
/>
<circle fill="#211d1b" cx="487.13" cy="108.17" r="6.80"/>
<circle fill="#211d1b" cx="537.15" cy="108.14" r="6.82"/>
<path fill="#fcfcfc" d="
  M 448.00 121.89
  Q 447.17 133.76 450.57 145.59
  A 0.58 0.58 0.0 0 1 449.84 146.31
  Q 442.24 143.94 437.84 137.21
  Q 429.17 123.94 437.05 110.45
  C 438.19 108.49 440.09 106.62 441.95 105.35
  A 0.61 0.61 0.0 0 1 442.84 105.58
  L 448.72 117.41
  Q 448.99 117.95 448.87 118.53
  C 448.64 119.72 448.09 120.63 448.00 121.89
  Z"
/>
<path fill="#fcfcfc" d="
  M 582.75 105.54
  Q 584.37 106.49 585.55 107.90
  Q 595.53 119.74 588.66 133.98
  C 586.00 139.50 580.55 144.91 574.33 146.21
  A 0.44 0.43 2.3 0 1 573.82 145.66
  Q 577.06 135.00 576.72 122.93
  C 576.67 121.27 576.10 119.78 575.92 118.17
  Q 575.86 117.61 576.12 117.11
  L 582.00 105.75
  A 0.54 0.53 29.1 0 1 582.75 105.54
  Z"
/>
<path fill="#211d1b" d="
  M 507.28 130.82
  A 0.39 0.39 0.0 0 0 507.82 130.44
  Q 507.56 125.08 507.88 120.45
  Q 508.01 118.49 510.61 117.62
  Q 512.51 116.98 514.76 120.39
  A 2.66 2.63 28.9 0 1 515.20 121.88
  Q 515.13 128.32 515.07 133.34
  Q 515.01 137.67 510.25 138.37
  C 507.37 138.79 502.36 138.70 501.56 135.05
  C 500.84 131.75 504.32 129.62 507.28 130.82
  Z"
/>
<path fill="#fcfcfc" d="
  M 598.51 128.45
  L 663.71 135.73
  A 0.28 0.27 -65.8 0 1 663.88 136.19
  C 643.12 159.99 619.74 182.52 589.35 191.58
  Q 575.15 195.81 559.90 199.26
  A 0.71 0.71 0.0 0 1 559.17 198.98
  Q 555.75 194.16 549.52 194.82
  C 546.29 195.17 541.53 199.23 539.39 194.50
  Q 538.27 192.02 538.42 189.10
  Q 538.46 188.34 539.13 187.99
  Q 560.52 176.56 570.84 154.69
  A 1.00 1.00 0.0 0 1 571.63 154.13
  C 585.23 152.79 595.42 142.02 597.84 128.93
  A 0.62 0.59 8.2 0 1 598.51 128.45
  Z"
/>
<path fill="#fcfcfc" d="
  M 471.14 194.89
  Q 467.75 195.73 465.29 198.91
  Q 464.80 199.55 464.02 199.35
  C 451.66 196.08 439.36 193.31 427.62 188.70
  Q 414.54 183.57 401.57 174.03
  Q 379.75 157.98 361.58 136.36
  Q 361.24 135.96 361.76 135.90
  L 425.50 128.71
  A 1.15 1.15 0.0 0 1 426.74 129.58
  C 429.83 142.12 439.53 152.89 452.55 154.06
  A 1.68 1.68 0.0 0 1 453.90 155.00
  C 460.88 169.72 473.27 182.23 487.87 188.53
  A 2.05 2.04 -79.0 0 1 489.10 190.36
  Q 489.15 193.07 488.61 195.47
  C 487.84 198.83 481.49 197.57 479.51 196.66
  C 476.81 195.43 474.22 194.13 471.14 194.89
  Z"
/>
<rect fill="#211d1b" x="-20.78" y="-3.58" transform="translate(512.78,152.85) rotate(0.1)" width="41.56" height="7.16" rx="3.50"/>
<path fill="#fcfcfc" d="
  M 483.71 247.95
  C 485.06 250.21 487.69 250.54 489.44 248.47
  Q 493.98 243.08 499.43 238.64
  A 0.52 0.52 0.0 0 1 500.28 238.97
  C 500.73 242.01 500.53 246.55 503.00 248.64
  A 1.51 1.48 -66.2 0 1 503.51 250.00
  C 503.18 252.10 502.51 254.17 502.25 256.28
  Q 495.04 315.21 487.59 376.72
  A 0.50 0.50 0.0 0 1 486.80 377.07
  Q 458.33 356.87 429.77 332.28
  Q 427.10 329.99 424.55 332.41
  Q 424.21 332.73 424.00 333.16
  Q 422.76 335.59 424.81 337.39
  Q 454.43 363.45 486.09 385.17
  Q 486.57 385.50 486.51 386.07
  Q 485.43 396.29 484.08 406.57
  Q 483.07 414.24 483.23 420.81
  Q 483.65 437.58 483.70 454.03
  Q 483.70 454.96 482.77 454.91
  Q 479.94 454.76 477.43 454.37
  Q 465.70 452.56 453.17 451.16
  Q 435.17 449.15 415.89 451.38
  Q 412.81 451.74 409.82 450.45
  A 1.84 1.83 -74.5 0 1 408.72 448.50
  C 410.30 437.41 413.71 427.26 414.11 416.05
  Q 414.73 398.37 415.60 381.02
  Q 417.09 351.49 414.52 327.12
  Q 412.49 307.97 406.44 290.96
  Q 405.34 287.87 402.48 285.38
  C 395.76 279.56 389.20 273.42 383.11 266.96
  Q 359.56 242.02 336.74 215.40
  A 0.56 0.55 -41.0 0 1 336.80 214.61
  L 386.12 172.36
  Q 386.86 171.73 387.63 172.33
  Q 392.49 176.21 397.46 179.93
  Q 414.80 192.90 435.33 199.05
  Q 449.79 203.39 463.87 206.47
  A 2.71 2.71 0.0 0 1 465.77 208.01
  Q 474.30 226.99 481.62 243.88
  Q 482.50 245.92 483.71 247.95
  Z"
/>
<path fill="#fcfcfc" d="
  M 625.19 181.90
  C 629.44 179.48 633.36 176.48 637.02 173.13
  A 1.74 1.73 43.9 0 1 639.32 173.09
  L 687.99 214.83
  A 0.85 0.85 0.0 0 1 688.10 216.01
  Q 663.67 245.87 637.51 273.31
  Q 630.19 280.99 622.07 286.38
  Q 619.69 287.96 616.89 288.76
  A 0.37 0.37 0.0 0 1 616.43 288.34
  Q 623.00 249.21 624.69 208.18
  Q 625.26 194.41 624.60 182.99
  Q 624.55 182.26 625.19 181.90
  Z"
/>
<path fill="#fcfcfc" d="
  M 521.07 248.31
  A 3.20 3.00 80.0 0 0 522.79 245.68
  Q 523.04 241.91 523.81 238.15
  A 0.46 0.46 0.0 0 1 524.59 237.91
  L 535.10 248.22
  Q 539.21 252.24 541.57 247.00
  L 559.30 207.52
  A 1.85 1.85 0.0 0 1 560.59 206.47
  C 580.18 202.18 599.24 197.53 616.90 187.53
  A 0.52 0.51 -15.5 0 1 617.67 187.96
  Q 618.10 201.88 617.05 218.31
  Q 614.94 251.39 610.48 280.27
  Q 608.87 290.71 608.21 300.24
  Q 604.24 357.62 610.06 415.04
  A 0.34 0.34 0.0 0 1 609.72 415.42
  Q 600.35 415.62 590.53 417.53
  Q 585.42 418.52 581.92 421.94
  Q 581.52 422.34 581.05 422.02
  C 576.53 418.90 568.65 419.92 563.63 420.93
  A 2.94 2.92 52.4 0 1 561.77 420.68
  L 541.46 410.52
  Q 541.05 410.31 541.00 409.86
  Q 539.34 392.83 536.90 373.67
  Q 528.71 309.26 521.46 256.01
  Q 521.08 253.21 520.16 249.70
  Q 520.02 249.16 520.42 248.77
  Q 520.71 248.49 521.07 248.31
  Z
  M 596.4763 294.5877
  A 6.63 6.63 0.0 0 0 589.8579 287.9462
  L 548.4379 287.8739
  A 6.63 6.63 0.0 0 0 541.7964 294.4923
  L 541.7637 313.2123
  A 6.63 6.63 0.0 0 0 548.3821 319.8538
  L 589.8021 319.9261
  A 6.63 6.63 0.0 0 0 596.4436 313.3077
  L 596.4763 294.5877
  Z"
/>
<path fill="#fcfcfc" d="
  M 531.76 197.85
  A 2.39 2.39 0.0 0 0 533.36 200.02
  L 536.72 201.20
  A 0.41 0.41 0.0 0 1 536.78 201.94
  Q 524.90 208.69 512.57 214.52
  Q 512.07 214.76 511.56 214.53
  Q 500.64 209.55 490.70 203.79
  A 0.39 0.39 0.0 0 1 490.79 203.08
  C 492.71 202.55 495.45 201.78 495.66 199.41
  Q 496.00 195.49 495.89 191.73
  A 0.38 0.38 0.0 0 1 496.37 191.35
  Q 513.68 195.75 530.56 190.71
  A 0.76 0.75 80.5 0 1 531.53 191.41
  L 531.76 197.85
  Z"
/>
<path fill="#fcfcfc" d="
  M 506.19 220.79
  C 500.64 227.20 494.14 233.26 488.05 238.99
  A 0.52 0.52 0.0 0 1 487.22 238.83
  L 471.23 202.90
  A 0.64 0.63 -13.4 0 1 471.78 202.01
  Q 474.14 201.86 476.20 203.09
  Q 490.87 211.90 505.93 219.47
  A 0.85 0.85 0.0 0 1 506.19 220.79
  Z"
/>
<path fill="#fcfcfc" d="
  M 517.54 219.79
  Q 534.62 211.47 550.03 202.23
  A 2.29 2.29 0.0 0 1 552.73 202.50
  Q 553.48 203.19 552.93 204.43
  Q 545.20 221.77 537.28 238.91
  A 0.50 0.50 0.0 0 1 536.48 239.07
  Q 527.35 230.62 518.76 221.74
  Q 518.02 220.98 517.46 220.07
  A 0.20 0.19 -30.0 0 1 517.54 219.79
  Z"
/>
<path fill="#8cbf13" d="
  M 506.71 231.82
  L 511.16 226.76
  Q 511.61 226.25 512.16 226.64
  Q 514.12 228.02 516.26 229.72
  C 517.59 230.79 517.73 231.97 517.39 233.57
  Q 516.53 237.54 515.78 241.31
  Q 514.89 245.78 510.01 244.23
  Q 508.31 243.68 507.93 241.87
  Q 507.02 237.54 506.20 233.79
  A 2.24 2.22 59.7 0 1 506.71 231.82
  Z"
/>
<path fill="#8cbf13" d="
  M 515.34 273.00
  L 508.55 272.93
  A 0.91 0.91 0.0 0 1 507.65 271.95
  L 508.16 265.57
  A 0.91 0.91 0.0 0 1 509.11 264.73
  L 514.74 265.00
  A 0.91 0.91 0.0 0 1 515.60 265.82
  L 516.25 271.99
  A 0.91 0.91 0.0 0 1 515.34 273.00
  Z"
/>
<path fill="#8cbf13" d="
  M 506.37 286.59
  L 517.78 286.54
  A 0.82 0.82 0.0 0 1 518.60 287.25
  L 519.54 294.25
  A 0.82 0.82 0.0 0 1 518.73 295.18
  L 505.48 295.23
  A 0.82 0.82 0.0 0 1 504.67 294.30
  L 505.56 287.30
  A 0.82 0.82 0.0 0 1 506.37 286.59
  Z"
/>
<path fill="#211d1b" d="
  M 596.4436 313.3077
  A 6.63 6.63 0.0 0 1 589.8021 319.9261
  L 548.3821 319.8538
  A 6.63 6.63 0.0 0 1 541.7637 313.2123
  L 541.7964 294.4923
  A 6.63 6.63 0.0 0 1 548.4379 287.8739
  L 589.8579 287.9462
  A 6.63 6.63 0.0 0 1 596.4763 294.5877
  L 596.4436 313.3077
  Z
  M 589.31 295.76
  A 0.65 0.65 0.0 0 0 588.66 295.11
  L 549.70 295.11
  A 0.65 0.65 0.0 0 0 549.05 295.76
  L 549.05 312.04
  A 0.65 0.65 0.0 0 0 549.70 312.69
  L 588.66 312.69
  A 0.65 0.65 0.0 0 0 589.31 312.04
  L 589.31 295.76
  Z"
/>
<rect fill="#fcfcfc" x="549.05" y="295.11" width="40.26" height="17.58" rx="0.65"/>
<path fill="#8cbf13" d="
  M 503.37 309.07
  L 520.82 309.06
  A 0.65 0.65 0.0 0 1 521.47 309.65
  L 522.24 317.68
  A 0.65 0.65 0.0 0 1 521.59 318.39
  L 502.61 318.40
  A 0.65 0.65 0.0 0 1 501.97 317.69
  L 502.72 309.66
  A 0.65 0.65 0.0 0 1 503.37 309.07
  Z"
/>
<path fill="#8cbf13" d="
  M 524.44 341.97
  L 500.11 342.02
  A 0.95 0.95 0.0 0 1 499.16 340.96
  L 500.05 333.36
  A 0.95 0.95 0.0 0 1 500.99 332.52
  L 523.51 332.47
  A 0.95 0.95 0.0 0 1 524.45 333.31
  L 525.38 340.91
  A 0.95 0.95 0.0 0 1 524.44 341.97
  Z"
/>
<path fill="#8cbf13" d="
  M 498.05 355.63
  L 526.58 355.52
  A 0.88 0.88 0.0 0 1 527.46 356.30
  L 528.40 364.64
  A 0.88 0.88 0.0 0 1 527.53 365.62
  L 497.17 365.72
  A 0.88 0.88 0.0 0 1 496.29 364.74
  L 497.18 356.41
  A 0.88 0.88 0.0 0 1 498.05 355.63
  Z"
/>
<path fill="#8cbf13" d="
  M 531.27 388.73
  Q 531.32 389.33 530.71 389.33
  L 505.95 389.20
  A 3.47 3.43 61.3 0 1 504.07 388.64
  L 494.77 382.53
  A 1.40 1.40 0.0 0 1 494.13 381.39
  Q 494.08 379.90 495.56 379.86
  Q 507.69 379.51 529.70 379.76
  A 0.88 0.87 -2.2 0 1 530.56 380.55
  L 531.27 388.73
  Z"
/>
<path fill="#8cbf13" d="
  M 515.50 403.72
  C 520.74 407.09 526.09 410.61 531.46 413.23
  Q 532.37 413.67 531.36 413.65
  Q 511.24 413.15 491.38 413.49
  A 0.85 0.85 0.0 0 1 490.52 412.53
  L 491.71 403.30
  A 0.88 0.88 0.0 0 1 492.55 402.54
  Q 501.34 402.26 510.72 402.37
  C 512.34 402.39 514.14 402.85 515.50 403.72
  Z"
/>
<path fill="#fcfcfc" d="
  M 529.71 402.70
  Q 531.09 402.79 532.40 403.53
  Q 532.74 403.72 532.77 404.11
  Q 532.78 404.26 532.74 404.40
  Q 532.60 404.85 532.18 404.65
  Q 530.78 403.98 529.54 403.21
  Q 528.60 402.62 529.71 402.70
  Z"
/>
<path fill="#fcfcfc" d="
  M 541.77 418.66
  L 549.74 422.86
  A 0.43 0.43 0.0 0 1 549.63 423.66
  L 541.73 425.22
  A 0.43 0.43 0.0 0 1 541.21 424.80
  L 541.14 419.04
  A 0.43 0.43 0.0 0 1 541.77 418.66
  Z"
/>
<path fill="#8cbf13" d="
  M 633.77 518.24
  Q 634.14 523.25 634.32 527.79
  Q 634.53 533.21 628.71 533.66
  Q 617.12 534.57 606.10 536.07
  C 602.75 536.52 599.47 536.63 598.93 532.31
  Q 592.93 483.98 587.04 433.38
  Q 586.79 431.31 586.81 429.30
  C 586.83 424.77 593.32 423.75 596.83 423.28
  Q 609.70 421.57 620.87 421.89
  C 626.12 422.03 627.09 425.27 627.42 430.00
  Q 630.65 476.33 633.77 518.24
  Z"
/>
<path fill="#8cbf13" d="
  M 528.44 437.32
  L 491.73 437.21
  A 1.51 1.51 0.0 0 1 490.23 435.73
  L 490.12 428.54
  A 1.51 1.51 0.0 0 1 491.64 427.01
  L 532.94 427.14
  A 1.51 1.51 0.0 0 1 534.21 429.45
  L 529.73 436.61
  A 1.51 1.51 0.0 0 1 528.44 437.32
  Z"
/>
<path fill="#8cbf13" d="
  M 548.96 430.55
  C 557.10 429.10 566.10 426.97 573.96 427.12
  Q 578.92 427.21 579.53 432.27
  Q 585.42 480.89 591.52 531.57
  Q 592.25 537.63 585.74 538.58
  Q 571.23 540.70 556.99 542.88
  Q 552.12 543.63 551.23 538.72
  Q 542.94 492.79 534.70 446.54
  Q 534.46 445.23 534.67 444.28
  Q 537.20 432.64 548.96 430.55
  Z"
/>
<path fill="#8cbf13" d="
  M 526.60 452.67
  C 520.96 454.46 517.05 457.72 513.45 462.39
  A 1.51 1.50 28.8 0 1 511.75 462.88
  Q 501.48 459.18 491.89 454.10
  Q 491.20 453.73 490.90 452.98
  Q 490.59 452.19 491.06 451.57
  Q 491.44 451.07 492.06 451.07
  Q 507.09 451.00 524.38 451.00
  Q 525.75 451.00 526.57 451.23
  Q 529.01 451.90 526.60 452.67
  Z"
/>
<path fill="#8cbf13" d="
  M 450.21 469.80
  A 0.51 0.50 -0.0 0 1 449.70 470.30
  L 414.49 470.16
  Q 413.81 470.16 413.81 469.49
  L 413.86 458.98
  A 0.49 0.49 0.0 0 1 414.32 458.49
  C 426.15 457.90 437.16 457.05 449.34 458.01
  A 0.99 0.98 2.2 0 1 450.25 458.99
  L 450.21 469.80
  Z"
/>
<path fill="#8cbf13" d="
  M 502.98 469.67
  Q 500.76 470.09 498.75 470.09
  Q 478.39 470.14 458.19 470.16
  A 0.47 0.47 0.0 0 1 457.72 469.69
  L 457.69 459.57
  A 0.60 0.59 -85.8 0 1 458.37 458.98
  Q 470.18 460.74 480.97 461.91
  C 484.85 462.33 488.81 461.49 492.64 463.39
  Q 497.64 465.87 502.51 468.53
  Q 503.02 468.81 503.16 469.38
  A 0.24 0.24 0.0 0 1 502.98 469.67
  Z"
/>
<path fill="#8cbf13" d="
  M 532.03 476.06
  Q 525.42 478.81 518.91 482.13
  Q 494.87 494.35 472.74 505.90
  Q 472.15 506.21 471.85 505.61
  L 467.68 497.27
  Q 467.34 496.58 468.02 496.22
  Q 488.73 485.23 508.56 474.53
  C 513.80 471.70 519.22 467.84 522.86 463.19
  Q 525.01 460.45 528.59 459.38
  Q 529.49 459.11 529.67 460.03
  L 532.61 474.98
  A 0.97 0.97 0.0 0 1 532.03 476.06
  Z"
/>
<path fill="#8cbf13" d="
  M 513.80 596.60
  C 511.31 596.24 508.33 596.44 508.05 599.55
  Q 502.64 659.86 497.30 718.48
  Q 494.17 752.76 491.19 787.28
  Q 490.34 797.19 490.35 806.28
  Q 490.45 889.10 490.28 962.19
  Q 490.28 963.16 489.31 963.16
  L 423.87 963.15
  A 1.18 1.18 0.0 0 1 422.69 961.97
  Q 422.55 884.99 422.65 807.82
  Q 422.66 798.20 422.23 788.00
  Q 418.22 692.29 414.35 605.34
  Q 413.94 596.15 413.92 586.93
  Q 413.82 533.19 413.88 477.79
  Q 413.88 477.59 414.08 477.59
  L 448.27 477.79
  Q 450.14 477.80 449.99 479.67
  C 449.69 483.43 453.36 483.56 456.09 483.10
  Q 456.75 482.99 457.06 482.40
  Q 457.91 480.78 457.88 478.73
  A 0.85 0.85 0.0 0 1 458.74 477.87
  L 484.23 478.01
  Q 485.66 478.02 484.43 478.76
  Q 474.36 484.82 463.70 490.41
  Q 461.53 491.54 459.82 493.59
  Q 459.50 493.97 459.49 494.47
  Q 459.46 496.34 460.30 498.11
  Q 463.71 505.33 466.94 511.25
  Q 469.37 515.69 474.17 513.18
  Q 485.62 507.18 496.98 501.84
  A 0.31 0.31 0.0 0 1 497.42 502.16
  Q 496.73 507.24 496.21 512.39
  C 495.91 515.34 496.79 517.21 498.06 519.66
  Q 498.71 520.91 498.71 522.33
  Q 498.67 533.51 498.47 544.87
  Q 498.29 554.66 506.41 558.36
  Q 511.54 560.70 516.73 556.85
  Q 521.99 552.94 522.11 546.09
  Q 522.50 524.78 522.04 507.64
  Q 522.02 506.90 522.75 507.04
  C 529.46 508.31 532.08 505.93 536.31 501.39
  A 0.37 0.37 0.0 0 1 536.94 501.54
  Q 537.63 504.02 538.07 506.44
  Q 541.00 522.37 544.05 539.01
  C 546.05 549.94 553.85 550.72 563.27 549.04
  Q 573.39 547.24 584.09 545.88
  Q 591.24 544.96 595.39 541.20
  A 0.77 0.77 0.0 0 1 596.32 541.13
  C 600.32 543.71 604.69 543.41 609.23 542.93
  Q 610.10 542.84 610.11 543.72
  C 610.26 565.34 610.70 585.60 609.71 606.28
  Q 605.27 699.41 601.90 793.71
  Q 601.60 802.04 601.65 811.23
  Q 602.01 887.23 601.62 962.16
  Q 601.61 963.23 600.54 963.23
  L 534.56 963.08
  A 0.85 0.85 0.0 0 1 533.72 962.23
  Q 533.32 883.49 533.52 805.66
  Q 533.55 796.00 532.71 786.13
  Q 525.73 703.40 518.38 621.09
  Q 517.41 610.26 516.29 600.00
  C 516.10 598.31 515.88 596.90 513.80 596.60
  Z"
/>
<path fill="#8cbf13" d="
  M 528.96 491.62
  Q 529.19 493.29 529.44 495.14
  C 529.79 497.79 528.59 500.60 525.47 499.87
  C 522.09 499.07 520.55 492.41 520.13 489.62
  Q 520.05 489.11 520.52 488.90
  C 521.91 488.30 523.43 487.98 524.72 487.16
  Q 528.53 484.73 533.08 483.25
  Q 533.60 483.08 533.77 483.60
  Q 535.25 488.17 535.94 492.90
  Q 536.06 493.72 535.30 493.40
  L 529.63 491.10
  Q 528.84 490.78 528.96 491.62
  Z"
/>
<path fill="#8cbf13" d="
  M 516.97 504.26
  C 510.71 504.88 507.96 504.58 504.11 510.22
  Q 503.12 511.68 503.00 509.91
  C 502.82 507.10 502.61 499.75 505.82 497.98
  Q 511.70 494.72 517.50 491.26
  Q 517.97 490.98 518.15 491.50
  C 519.44 495.24 518.38 499.63 517.78 503.49
  A 0.91 0.90 1.2 0 1 516.97 504.26
  Z"
/>
<path fill="#8cbf13" d="
  M 515.04 513.12
  Q 515.18 530.48 514.94 545.87
  C 514.89 548.53 512.68 553.76 509.14 551.83
  Q 505.72 549.97 505.65 545.98
  Q 505.42 534.36 505.51 523.26
  A 9.79 9.77 65.2 0 1 507.77 517.09
  Q 510.16 514.24 512.01 512.03
  Q 515.01 508.45 515.04 513.12
  Z"
/>
<path fill="#fcfcfc" d="
  M 488.51 992.65
  A 0.40 0.39 -3.3 0 1 488.95 993.04
  L 488.91 1005.95
  Q 488.91 1006.77 488.09 1006.78
  Q 427.02 1007.68 362.91 1009.48
  Q 362.28 1009.50 362.29 1008.87
  Q 362.38 1004.75 362.29 1000.63
  C 362.24 997.95 366.83 996.16 368.83 995.41
  Q 369.37 995.21 369.86 995.49
  Q 376.13 999.10 382.72 1000.07
  Q 416.62 1005.10 446.53 1002.09
  Q 459.45 1000.79 471.68 995.65
  C 473.60 994.84 476.19 992.83 478.27 992.95
  Q 483.22 993.24 488.51 992.65
  Z"
/>
<path fill="#fcfcfc" d="
  M 547.66 993.18
  C 559.82 999.92 573.74 1002.45 587.79 1002.99
  Q 610.89 1003.87 636.68 1000.88
  Q 647.08 999.67 654.83 995.50
  A 1.16 1.15 48.2 0 1 656.03 995.57
  Q 658.20 997.05 660.55 998.39
  Q 661.82 999.11 661.83 1000.51
  Q 661.88 1004.75 661.84 1008.99
  A 0.42 0.41 -88.7 0 1 661.41 1009.41
  Q 600.21 1007.57 536.12 1006.88
  A 0.68 0.68 0.0 0 1 535.45 1006.20
  L 535.42 993.47
  Q 535.42 992.81 536.08 992.86
  Q 541.51 993.28 546.85 993.00
  A 1.47 1.45 57.1 0 1 547.66 993.18
  Z"
/>
</svg>
